<svg width="74" height="88" viewBox="0 0 74 88" fill="none" xmlns="http://www.w3.org/2000/svg">
<path d="M46.3853 31.2935C46.3853 31.2935 51.4191 33.644 50.3166 44.898C49.2141 56.152 36.1664 77.4413 34.5127 79.57C32.8589 81.6987 26.3351 87.9842 17.7886 86.8684C9.24213 85.7526 4.84041 79.9655 4.84041 79.9655M7.41015 54.357C5.35436 52.1026 -2.56626 42.1221 7.12831 31.5152C18.1554 19.4496 27.6572 34.4625 27.6572 34.4625M32.776 30.8292C32.7574 28.369 33.263 23.4828 37.1922 20.8853M37.1922 20.8853C37.3062 20.8099 37.4223 20.7367 37.5425 20.6658C43.3327 17.2201 49.3053 20.1605 51.6015 22.0857C53.8997 24.0132 55.2778 25.7807 56.1047 26.8233C56.9316 27.8659 60.5147 34.9609 61.8017 36.4814C63.0866 38.0019 71.4486 45.3026 72.8267 52.9051C74.2048 60.5099 70.715 64.4632 69.7036 66.592C68.6923 68.7207 64.7424 73.3851 60.5147 75.6144C56.2871 77.846 49.3965 77.846 44.7108 75.6144C42.0312 74.3408 40.3713 72.7014 39.4408 71.5307M37.1922 20.8853C32.8361 11.7943 35.9799 1 35.9799 1M35.4991 9.21299C35.4991 9.21299 40.2075 3.94038 48.3851 5.36028C56.5627 6.78018 59.6298 12.8622 59.6298 12.8622C59.6298 12.8622 56.4218 12.1534 50.6585 15.295C44.8953 18.4366 39.5465 15.1944 38.4522 14.5862C37.3601 13.978 35.7105 11.7395 36.2141 10.8821C36.7177 10.0247 39.5651 8.20008 45.0776 8.80829C50.5901 9.41649 54.3577 11.7487 54.3577 11.7487M40.2987 9.71824C40.2987 9.71824 41.3101 11.5429 44.4331 12.4552C47.5562 13.3675 49.5788 13.164 49.5788 13.164M45.0776 8.80609C45.0776 8.80609 47.5583 6.77795 49.5809 6.98145M44.9844 29.8942C49.1975 33.2599 48.6608 38.816 47.7406 42.4652C46.8205 46.1144 40.9412 58.7883 39.3786 62.0305C37.816 65.275 30.6498 76.2226 28.8116 78.0495C26.9734 79.8741 18.6113 89.3035 7.95311 82.5104C-2.70511 75.7173 1.89142 63.7545 2.53385 61.6258C3.17629 59.4971 9.14887 51.9952 11.8139 49.0548C14.479 46.1144 25.3217 36.2803 28.538 33.7469C31.7543 31.2135 39.6563 25.6345 44.9844 29.8942ZM27.0666 51.1835C29.5473 53.3122 34.1417 57.9766 29.4561 66.1873C24.7704 74.398 17.5109 70.5476 15.5815 69.2283C13.6521 67.909 7.21949 61.2188 15.5815 52.8046C20.6236 47.7309 27.0666 51.1835 27.0666 51.1835Z" stroke="white" stroke-miterlimit="10"/>
</svg>
