<svg width="113" height="96" viewBox="0 0 113 96" fill="none" xmlns="http://www.w3.org/2000/svg">
<path d="M80.7612 16.9467C80.7612 16.9467 80.0204 15.8459 84.6647 10.5391C89.309 5.23227 98.7482 10.2232 98.7482 10.2232C98.7482 10.2232 91.6831 4.42916 84.6564 4.02717C77.6296 3.62517 72.6441 12.6482 71.828 15.1426C71.0109 17.6344 73.0389 17.0917 75.4263 15.1775C77.8137 13.2633 74.3176 1.27437 74.3176 1.27437C74.3176 1.27437 70.1654 6.69358 65.59 14.0873C61.0145 21.481 58.4478 22.5584 56.5236 24.4509C54.6024 26.3425 50.5159 27.8663 48.3174 27.216C46.119 26.5657 40.836 20.315 32.3817 19.7C23.9273 19.0851 16.8202 22.3083 16.8202 22.3083C16.8202 22.3083 24.4582 22.5074 28.2722 24.5484C32.0862 26.5894 31.2569 30.1949 33.5366 30.6741C35.8163 31.1532 38.5309 26.5717 34.7142 26.8136C30.8975 27.0556 20.2766 26.5517 16.8547 31.1684C13.4328 35.7851 6.37553 42.1832 0.654133 42.4479C0.654133 42.4479 13.6908 42.935 19.3614 37.9607C25.0319 32.9865 33.6236 35.5965 33.6236 35.5965L45.6027 34.2422C45.6027 34.2422 51.0661 33.0859 49.953 25.2832C48.8398 17.4805 49.5498 11.1424 51.2056 10.8626L56.268 11.6514C56.268 11.6514 52.4298 15.058 55.7108 22.374C58.9918 29.69 60.007 28.901 60.007 28.901M54.9037 32.2085C59.5212 30.3025 67.5864 20.7295 76.5625 17.7019C88.4376 13.6974 104.224 19.6787 110.429 40.1114C116.142 58.9276 104.608 81.683 78.7348 90.4321C48.955 100.501 28.2925 93.9837 17.8656 71.1632C9.81209 53.5294 17.8821 40.663 26.6649 37.1503C34.7861 33.9012 46.2112 35.7971 54.9037 32.2085ZM35.8862 41.2487C44.4517 37.9468 51.6118 40.5921 55.3413 47.4444C57.6455 51.6791 62.9866 66.213 64.5905 71.0775C66.1945 75.942 67.3077 84.1667 56.9168 86.9708C47.4453 89.5245 40.5597 87.1587 34.3446 80.4374C28.1771 73.7689 21.9513 62.1308 24.3176 53.2933C26.6839 44.4557 31.0858 43.1007 35.8862 41.2487ZM77.6777 26.276C82.4282 24.6753 92.2459 23.2303 96.2888 30.5991C100.329 37.9689 104.822 52.1194 101.915 60.7203C99.0093 69.3239 90.8067 80.0092 79.5599 75.7368C71.0516 72.5048 63.5183 41.8413 65.5794 36.5797C68.5357 29.0344 77.6777 26.276 77.6777 26.276ZM43.5709 45.0365C42.3296 45.6954 41.3203 47.214 43.7002 49.8602C46.3883 52.8464 48.8781 52.8295 48.3134 49.553C47.641 45.6313 45.3451 44.0948 43.5709 45.0365ZM73.6719 34.3937C72.258 34.5856 70.7199 35.6572 71.8926 38.9289C73.2165 42.6217 75.5412 43.4483 76.3089 40.2105C77.2255 36.3286 75.6936 34.1188 73.6719 34.3937ZM87.4079 32.6131C86.0451 32.2126 84.1565 32.552 83.6674 35.9679C83.1147 39.8241 84.813 41.5121 87.0305 38.9142C89.6909 35.7952 89.3567 33.185 87.4079 32.6131ZM96.4758 47.1917C96.5159 45.8653 95.6438 44.2741 91.969 44.784C87.8202 45.3566 86.5406 47.3383 89.8464 48.5971C93.8095 50.1064 96.4199 49.0893 96.4758 47.1917ZM94.7166 60.4731C95.4982 59.3626 95.6506 57.5826 92.232 56.2336C88.3736 54.7077 86.1674 55.7763 88.2737 58.4552C90.7999 61.6647 93.6001 62.0622 94.7166 60.4731ZM87.0115 71.741C88.2215 71.0364 89.1616 69.4786 86.6662 66.9245C83.8468 64.042 81.3618 64.1572 82.0709 67.4069C82.9189 71.3038 85.2815 72.7523 87.0115 71.741ZM32.7946 51.6592C31.7734 52.5879 31.2112 54.2934 34.2328 56.2982C37.6455 58.5619 40.0486 57.9617 38.6131 54.9223C36.896 51.2838 34.2562 50.3321 32.7946 51.6592ZM31.671 67.8556C31.9347 69.1579 33.1534 70.5416 36.6275 69.321C40.549 67.9433 41.3468 65.7551 37.828 65.1746C33.6078 64.4802 31.2909 65.9893 31.671 67.8556ZM40.9311 79.2497C42.0099 80.121 43.8881 80.5041 45.7979 77.5504C47.9552 74.2132 47.1175 72.0384 43.969 73.6089C40.2002 75.4884 39.3898 78.0059 40.9311 79.2497ZM52.955 83.2697C54.2274 83.8694 56.1513 83.8182 57.2299 80.5225C58.4475 76.7986 57.0661 74.8789 54.4224 77.1108C51.2544 79.7851 51.1292 82.4094 52.955 83.2697Z" stroke="white" stroke-miterlimit="10"/>
</svg>
