<svg width="100" height="89" viewBox="0 0 100 89" fill="none" xmlns="http://www.w3.org/2000/svg">
<path d="M51.4165 8.21426C51.4165 8.21426 57.3853 0.5826 67.1846 1.01794C76.9839 1.45328 85.7438 7.4799 88.4601 17.4774C91.1016 27.1978 88.6601 35.7463 83.8626 40.6142C79.2102 45.3304 69.5141 45.7701 69.5141 45.7701M66.2111 66.1872C66.2111 66.1872 69.9624 66.5038 72.2524 72.3039C75.1819 79.7245 68.3845 87 68.3845 87C68.6087 82.3212 62.3124 81.589 57.3435 79.1045C52.3747 76.62 53.8361 69.1598 55.8821 65.6881C57.9281 62.2163 62.2201 60.7828 64.7738 61.8492C66.9912 62.7748 65.187 66.7325 62.6794 64.7338C58.9478 61.759 60.2686 55.2685 76.929 50.6732C93.5894 46.0779 99 64.1864 99 64.1864C99 64.1864 96.565 62.9199 90.9126 64.2831C85.2603 65.6485 86.5283 67.0117 79.7068 67.3063C72.8853 67.5987 65.0177 59.1448 65.0177 59.1448M65.0177 59.147C65.0177 59.147 86.7085 51.2691 89.9918 57.1396C93.2751 63.0101 73.9534 54.1867 73.9534 54.1867M59.194 67.856C59.194 67.856 66.0638 75.0787 66.9407 76.5408C67.8175 78.0029 66.5011 80.4149 64.8221 79.32C63.1409 78.2228 65.0199 69.3863 65.0199 69.3863M76.1576 59.2525C76.1576 59.2525 79.7266 60.0045 82.2605 62.4406M10.4105 15.0808C15.1201 8.9882 25.871 3.52225 38.8789 4.98438C51.8868 6.44651 59.7807 11.7102 64.8947 20.9227C70.0108 30.1352 69.279 48.5603 64.1628 55.7258C59.0489 62.8935 50.3792 72.4227 33.5518 71.7982C17.3617 71.198 5.08341 60.6399 1.68804 45.4293C-1.32713 31.9206 5.69876 21.1756 10.4105 15.0808ZM24.0667 31.2588C22.8141 31.7447 22.458 34.6228 24.0667 35.0603C25.6754 35.5 27.8181 34.4754 27.4291 33.1584C27.0379 31.8436 25.5765 30.6739 24.0667 31.2588ZM55.7788 23.9569C56.3568 22.8554 55.014 21.0085 53.691 21.8264C52.3659 22.6443 51.4846 24.6363 52.4692 25.1156C53.4559 25.5949 55.0822 25.2849 55.7788 23.9569ZM25.6754 42.2214C25.148 43.3472 26.572 45.1303 27.8577 44.253C29.1433 43.3757 29.9344 41.3464 28.9279 40.9132C27.9236 40.4801 26.3105 40.8648 25.6754 42.2214ZM78.7684 11.9674C78.2784 12.3544 79.7728 18.6229 78.1663 19.0824C76.5598 19.5419 76.3884 17.739 77.162 17.5081C77.9355 17.2795 81.1331 22.4266 81.81 22.2199C82.4869 22.0155 81.5529 15.1467 82.9286 15.3446C84.3065 15.5403 84.3637 17.2135 83.5022 17.3124C82.6429 17.4092 79.2585 11.5805 78.7684 11.9674ZM48.476 14.6828C50.1155 18.1589 39.7601 39.9854 37.0438 36.8522C34.3275 33.7213 52.3768 17.6708 55.9151 18.4514C59.4533 19.2319 66.6748 34.3501 63.308 37.2216C59.9412 40.0931 36.7384 41.8411 37.1449 39.3719C37.5515 36.9028 59.9412 37.1029 61.3059 40.7417C62.6706 44.3805 62.3937 46.643 60.3917 50.9744C58.3896 55.3058 56.0337 60.9983 51.2626 60.0023C46.4937 59.0062 34.1869 43.4087 36.9647 41.6806C39.7426 39.9524 47.375 58.2631 44.8609 63.3926C42.7665 67.6691 25.5589 68.9487 23.948 62.4626C22.0647 54.8771 32.4134 40.9066 34.1188 41.8235C35.8241 42.7403 25.8358 59.9847 18.2363 59.2525C10.6369 58.5181 7.05471 45.1699 8.94249 40.2932C10.8303 35.4165 32.3892 36.8874 32.8771 39.1938C33.365 41.4981 10.2743 35.8276 8.50735 33.1364C6.74044 30.4452 14.6542 14.01 22.0009 15.1094C29.3477 16.2087 37.1955 36.0981 35.0242 37.237C32.8529 38.3759 23.1657 16.4066 27.8643 12.1169C32.5628 7.82729 46.2212 9.89626 48.476 14.6828Z" stroke="white" stroke-miterlimit="10"/>
</svg>
