<svg width="103" height="88" viewBox="0 0 103 88" fill="none" xmlns="http://www.w3.org/2000/svg">
<path d="M86.92 10.09C95.063 5.14123 102.175 0.999738 102.175 0.999738M33.3775 53.7722C31.8995 55.4954 30.5001 57.2176 29.2026 58.9227M57.4948 44.7976C57.4948 44.7976 57.4937 44.7914 57.4892 44.7773C57.4252 44.5086 56.7796 41.6719 57.137 37.6794C57.3895 34.8551 58.1425 31.4531 59.9604 27.9755L59.9601 27.9734C59.9601 27.9734 59.9601 27.9734 59.9621 27.973L59.9617 27.9709L59.9637 27.9704C59.9637 27.9704 59.9637 27.9704 59.9633 27.9683M59.8332 27.9712L59.8336 27.9733L59.8355 27.9728M60.0749 28.8789C60.0749 28.8789 58.8113 35.402 66.9518 37.9228M57.2323 37.6544C54.0185 39.4007 52.6565 42.122 52.2772 43.0219M40.1695 62.794C42.4759 63.5077 45.5789 63.493 49.7066 61.8466M54.2135 46.1427C53.9225 45.2829 53.3875 44.0694 52.448 42.9532C51.2381 41.5171 49.3589 40.2437 46.47 40.0955C45.1016 40.0242 43.5056 40.206 41.6456 40.7434C33.3723 43.1338 32.6984 49.8407 33.215 53.8859C33.404 55.3564 33.7488 56.475 33.9443 56.9083C34.17 57.4094 34.6879 58.5031 35.6354 59.6302M19.9466 66.2757C17.9308 69.8341 16.8727 74.7173 18.9017 79.6407C21.9579 87.0625 28.2335 88.3244 34.7287 86.2558C41.2239 84.1871 44.6292 75.7785 43.7957 70.8C43.3541 68.158 42.3544 65.0122 40.3743 62.6714C39.2596 61.3508 37.8303 60.2871 36.0138 59.7115C34.9812 59.3837 33.8211 59.2162 32.5223 59.2479C31.1893 59.281 30.0473 59.3879 29.0675 59.5432M19.0993 79.2794C14.9916 84.3414 9.6397 83.7267 6.19637 80.8329C5.21285 80.006 4.38277 78.9911 3.78565 77.8707C3.08851 76.5627 2.67921 75.2076 2.49989 73.8683C1.98165 70.0543 3.3158 66.3807 5.0893 64.3478C6.79344 62.3932 9.8614 61.7197 11.4888 61.4926M3.73491 74.1351C3.73491 74.1351 1.62908 72.984 1.20967 74.7159C0.79026 76.4477 2.72715 77.1515 3.25398 78.8494C3.7808 80.5472 3.35575 82.8485 4.30438 83.3022C5.25264 83.7538 6.58177 83.0766 6.35707 80.7757M82.9775 12.3875C82.9775 12.3875 78.2185 15.1814 79.6829 23.4873C81.1476 31.7953 86.9002 33.8787 86.9002 33.8787C91.0999 27.9126 90.6353 21.4537 89.8444 16.21C89.4128 13.3367 88.0324 11.2834 86.7232 10.2997M86.7232 10.2997C86.5528 10.1716 86.3838 10.0625 86.22 9.97153C85.3344 9.4847 84.8067 9.78678 84.2059 10.1916C82.5373 11.315 83.785 12.7078 85.8071 11.8441C86.2291 11.6651 86.7332 11.068 86.7232 10.2997ZM86.7232 10.2997C86.7247 10.1126 86.7034 9.9115 86.6601 9.7004C86.3344 8.07126 84.7076 5.79145 80.3462 3.69833C73.1142 0.228451 64.1886 1.28777 64.1886 1.28777C64.1886 1.28777 68.9064 8.15826 73.1095 12.2584M73.1095 12.2584C76.0662 11.5289 78.5144 11.6122 79.4907 11.7068C81.5464 11.9064 81.9227 14.0412 78.2185 15.1814C77.0182 15.5506 75.1237 14.2212 73.1095 12.2584ZM73.1095 12.2584C69.8344 13.0656 65.9337 14.8715 62.7165 18.7628C62.7165 18.7628 70.3173 20.0762 75.7419 16.8089C72.5842 18.8791 66.8592 22.4174 64.903 23.9077C63.3377 25.0996 61.5395 26.5212 59.5816 28.1278C59.582 28.1299 59.582 28.1299 59.582 28.1299L59.58 28.1303C59.5781 28.1308 59.5781 28.1308 59.5781 28.1308L59.5785 28.1328M50.052 36.5512C48.8166 37.673 47.567 38.8278 46.3181 40.0101M57.2103 31.1648C57.2103 31.1648 53.2416 35.3608 46.947 37.5163C40.6523 39.6717 32.6773 39.5241 32.6773 39.5241C32.6773 39.5241 32.5137 35.293 40.1983 28.5287C47.8828 21.7645 55.7007 25.6663 57.054 26.7798C58.4054 27.8939 58.1725 29.0625 55.737 29.4507C53.3014 29.839 46.206 22.831 44.5267 17.9762C42.6993 12.6946 42.5936 7.01369 42.5936 7.01369C42.5936 7.01369 50.0429 10.443 55.8922 16.7392C61.7416 23.0355 59.2853 27.2749 59.2853 27.2749L59.283 27.2733M46.6355 23.5226C46.6355 23.5226 41.3624 21.4383 39.3968 21.9049C39.3968 21.9049 32.9596 7.73432 14.9992 19.5326C14.9992 19.5326 18.6991 25.813 26.61 25.6908C34.5209 25.5687 37.5033 21.7924 37.5033 21.7924C37.5033 21.7924 22.586 21.4471 21.3069 19.5974M54.5098 23.0174C54.5098 23.0174 49.5019 16.037 48.6922 15.1286C48.1839 14.5595 45.6893 15.2146 47.4838 17.841C49.4833 20.7666 53.2184 19.6186 53.2184 19.6186M52.4852 29.2786C52.4852 29.2786 40.3345 31.7226 37.9803 35.3668M43.2279 28.4849C43.2279 28.4849 48.2331 28.5796 50.5253 31.1974M67.9411 15.9537C67.9411 15.9537 70.8151 16.6119 73.3849 16.0792C75.9547 15.5465 75.9547 15.5465 75.9547 15.5465M81.0961 11.241C81.0961 11.241 76.1254 4.64304 71.5355 4.87035M85.2465 14.7083C85.2465 14.7083 84.107 20.6035 85.0602 24.9545C86.0134 29.3055 83.527 28.6271 83.0373 25.8618C82.5476 23.0965 85.6736 21.2223 85.6736 21.2223M82.8415 15.0246C82.8415 15.0246 85.4494 16.0444 86.184 18.1632M63.5244 44.6865C63.5244 44.6865 64.5561 37.5693 72.8928 35.794C80.0645 34.2683 83.7588 43.1435 82.5971 47.104C81.9054 49.4646 79.7865 55.1632 70.6441 55.7526M23.7893 18.1189C23.7893 18.1189 28.5874 18.6405 30.2492 22.3429M78.4724 6.64973C78.4724 6.64973 74.8828 8.84374 71.9943 7.2798M58.2353 44.8904C56.931 45.0756 55.2771 45.8024 54.1926 46.5114C49.338 49.9407 47.1732 56.2465 49.5541 62.0289C50.2046 63.607 51.3813 65.692 52.8326 66.6844C61.1868 72.3988 69.0594 64.4052 69.7334 61.9298C70.0268 60.8522 71.1059 58.0474 70.6168 54.0692C70.6168 54.0692 69.9766 49.2574 66.172 46.5394C62.4546 43.8806 58.2353 44.8904 58.2353 44.8904ZM29.2866 58.7048C29.2866 58.7048 29.1692 58.8647 28.9502 59.136C24.2156 60.2281 23.3514 61.6447 23.3514 61.6447C22.1167 62.6002 20.8521 64.062 19.8318 65.866C18.583 66.1455 17.2984 66.1182 16.04 65.6092C13.7454 64.6813 12.2133 63.1596 11.2014 61.503C9.43978 58.622 9.18836 56.2564 9.36885 54.0354C9.60114 51.1681 11.7367 49.1647 11.7367 49.1647C14.727 45.5305 21.5963 43.2324 26.2079 47.3009C30.8172 51.3679 29.2866 58.7048 29.2866 58.7048ZM13.6998 54.6136C14.3336 54.135 14.2811 50.5335 16.0605 51.2167C17.8398 51.8999 17.9978 54.5742 17.3133 55.0173C16.6287 55.4605 15.1766 56.1279 14.9864 55.5542C14.7962 54.9804 15.2059 54.5042 15.4764 54.7763C15.7485 55.0459 16.2788 58.8224 15.3438 59.3705C14.4087 59.9187 12.1606 57.5979 12.8336 57.3419C13.5066 57.0858 13.6241 57.2474 13.6968 57.6596C13.7694 58.0717 12.26 59.9404 11.2104 58.5656C10.1608 57.1908 11.1476 55.1574 12.0143 55.2427C12.8845 55.325 13.6998 54.6136 13.6998 54.6136ZM58.8107 60.2816C59.3404 60.1511 59.0793 56.8674 60.748 57.2005C62.4166 57.5336 62.7411 59.8738 62.3645 60.5285C61.9878 61.1833 61.0729 61.063 61.2264 60.4127C61.3799 59.7624 65.3532 57.7583 65.7067 59.4747C66.0603 61.1912 64.8773 63.3576 63.4468 63.3561C62.0162 63.3546 61.7255 62.4736 61.1141 62.8044C60.5028 63.1353 61.8095 66.1482 59.6214 66.0842C57.4334 66.0201 57.2557 62.2262 57.826 62.1653C58.3966 62.1065 58.6863 62.2277 58.74 62.7833C58.7937 63.3389 57.9205 64.7229 55.8454 63.356C53.7699 61.9871 55.2536 59.7535 56.2929 59.5612C57.3299 59.3672 57.417 60.6261 58.8107 60.2816ZM28.9398 77.7339C29.4777 77.7658 30.0988 74.5125 31.597 75.3345C33.0952 76.1565 32.7862 78.5166 32.2548 79.0357C31.7238 79.5569 30.8844 79.1656 31.2029 78.5824C31.5213 77.9993 35.8273 77.2512 35.7097 79.0169C35.5921 80.7825 33.8953 82.5235 32.535 82.0943C31.1744 81.663 31.1318 80.7256 30.4623 80.8627C29.7929 80.9997 30.2394 84.3038 28.1769 83.5861C26.1143 82.8684 26.947 79.1462 27.5052 79.2587C28.0635 79.3713 28.3076 79.5775 28.2118 80.1307C28.1159 80.684 26.919 81.7616 25.3073 79.818C23.6957 77.8745 25.6971 76.1572 26.7356 76.283C27.7737 76.4066 27.5259 77.6519 28.9398 77.7339ZM74.4202 45.9897C75.9399 46.0952 74.5119 48.0557 75.5952 48.401C76.3547 48.6411 77.3374 49.1381 77.0629 50.3766C76.8445 51.3603 74.265 52.8285 72.9701 50.2757C72.3015 48.9593 74.3463 49.2584 74.2879 49.8777C74.2375 50.4052 73.4361 52.1612 72.4344 52.0604C71.4308 51.96 70.4622 51.2222 70.8898 49.9013C71.18 49.0038 72.2474 49.2479 72.4344 47.7085C72.5962 46.3696 73.1195 45.9 74.4202 45.9897ZM36.3951 49.4526C37.2116 48.6785 37.8575 51.1311 38.2703 51.1328C38.9062 51.1325 39.1235 48.9999 40.0489 50.9982C40.9743 52.9965 39.4646 54.1373 38.988 53.6011C38.5114 53.065 38.9732 52.6763 39.1405 52.795C39.3096 52.9132 40.4183 55.5476 39.3268 56.79C38.2357 58.0345 36.374 54.4948 36.8562 54.3835C37.3385 54.2723 38.0851 54.5308 37.4359 55.0897C36.7867 55.6487 35.6446 55.4749 35.577 53.6168C35.5095 51.7588 36.5859 52.9427 36.7247 52.2086C36.8634 51.4745 35.3817 50.4121 36.3951 49.4526Z" stroke="white" stroke-miterlimit="10"/>
</svg>
