<svg width="124" height="50" viewBox="0 0 124 50" fill="none" xmlns="http://www.w3.org/2000/svg">
<path d="M53.8297 23.5411L54.4006 24.2145C54.6489 24.4306 54.9054 24.6633 55.1701 24.9127C55.4515 25.1621 55.7245 25.4115 55.9893 25.6608C56.2872 25.9601 56.5933 26.2677 56.9077 26.5835C57.2387 26.8828 57.5696 27.182 57.9006 27.4813C58.1985 27.7639 58.4881 28.0632 58.7694 28.3791C59.0673 28.6949 59.332 28.9692 59.5637 29.202C59.8285 29.5511 60.0519 29.7672 60.2339 29.8504C60.4325 29.9667 60.6063 30.1164 60.7552 30.2993C60.9538 30.5819 61.1937 30.8146 61.475 30.9975C61.5578 31.0308 61.6405 31.0723 61.7233 31.1222C61.806 31.1887 61.897 31.2552 61.9963 31.3217C62.2114 31.4381 62.3769 31.5794 62.4928 31.7456C62.5755 31.8288 62.65 31.8953 62.7162 31.9451C62.7989 32.0116 62.8817 32.0698 62.9644 32.1197C63.0637 32.1862 63.1464 32.2361 63.2126 32.2693C63.2788 32.3192 63.345 32.3608 63.4112 32.394C63.4774 32.4273 63.5436 32.4605 63.6098 32.4938C63.676 32.5436 63.7504 32.6018 63.8332 32.6683C63.9159 32.7515 63.9987 32.8096 64.0814 32.8429C64.1807 32.8928 64.28 32.9426 64.3793 32.9925C64.4786 33.0258 64.5779 33.0923 64.6771 33.192C64.7764 33.2918 64.8674 33.3832 64.9502 33.4663C65.2481 33.7323 65.5294 33.9235 65.7942 34.0399C65.9431 34.1397 66.0755 34.2394 66.1913 34.3392C66.3072 34.4389 66.4313 34.5303 66.5637 34.6135C66.7622 34.8628 67.027 35.0457 67.358 35.1621C67.5731 35.212 67.7138 35.2618 67.78 35.3117C67.7965 35.3616 67.9123 35.3865 68.1275 35.3865C68.3095 35.4364 68.4584 35.4697 68.5743 35.4863C68.6901 35.5029 68.7977 35.5195 68.897 35.5362C68.8308 35.5694 68.8308 35.6276 68.897 35.7107C68.9632 35.7772 68.9963 35.8354 68.9963 35.8853C69.1121 35.8853 69.2031 35.877 69.2693 35.8603C69.352 35.8603 69.4348 35.852 69.5175 35.8354C69.4679 35.8687 69.4927 35.8936 69.592 35.9102L69.6665 35.9601C70.0471 35.877 70.3201 35.7855 70.4856 35.6858L70.5352 35.611C70.5352 35.5777 70.6428 35.5029 70.8579 35.3865C71.0234 35.2037 71.1393 34.9792 71.2055 34.7132C71.2716 34.4638 71.3213 34.1895 71.3544 33.8903L71.3047 33.6409C71.3709 33.5744 71.462 33.5411 71.5778 33.5411C71.6936 33.5411 71.8012 33.591 71.9005 33.6908C71.9998 33.8072 72.0825 34.0316 72.1487 34.3641C72.1818 34.5137 72.1983 34.6633 72.1983 34.813C72.1983 34.9792 72.2066 35.1288 72.2232 35.2618C72.2894 35.3948 72.3225 35.4946 72.3225 35.5611C72.339 35.6442 72.3307 35.7273 72.2976 35.8105C72.2811 35.8936 72.2563 36.0017 72.2232 36.1347C72.2728 36.5004 72.1487 36.8994 71.8508 37.3317C71.8343 37.4647 71.8012 37.5977 71.7515 37.7307C71.7184 37.8637 71.6771 37.9967 71.6274 38.1297C71.5447 38.2627 71.4537 38.3874 71.3544 38.5037C71.2551 38.6367 71.1641 38.7697 71.0813 38.9027L70.6097 39.3017C70.2787 39.5345 69.9312 39.7008 69.5672 39.8005C69.2031 39.9003 68.8308 39.9667 68.4502 40L68.1026 39.9501C67.9041 39.9668 67.6972 39.9668 67.4821 39.9501C67.2835 39.9501 67.0684 39.9418 66.8367 39.9252L66.1168 39.7756C65.5377 39.6259 64.9916 39.3932 64.4786 39.0773C63.949 38.7282 63.4195 38.3209 62.8899 37.8554C62.559 37.5894 62.2032 37.2818 61.8226 36.9327C61.4585 36.6002 61.0862 36.2427 60.7056 35.8603C60.3415 35.478 59.9774 35.079 59.6134 34.6633C59.2658 34.2477 58.9432 33.8404 58.6453 33.4414C58.3805 33.1089 58.1323 32.7764 57.9006 32.4439C57.6689 32.128 57.4373 31.8205 57.2056 31.5212C57.1228 31.4214 57.0401 31.3134 56.9574 31.197C56.8912 31.0973 56.825 31.0141 56.7588 30.9476C56.676 30.9144 56.6016 30.8396 56.5354 30.7232C56.4857 30.6234 56.4278 30.5237 56.3616 30.4239C56.2789 30.3242 56.2044 30.2161 56.1382 30.0998C56.072 30 56.0058 29.8919 55.9396 29.7756C55.4266 29.0939 54.9633 28.4622 54.5496 27.8803C54.1359 27.2818 53.7718 26.7498 53.4574 26.2843C53.2092 25.985 52.9609 25.6941 52.7127 25.4115C52.481 25.1122 52.2742 24.8296 52.0922 24.5636L51.8191 24.2643C51.8191 24.3641 51.8108 24.4722 51.7943 24.5885C51.7943 24.6883 51.7943 24.7963 51.7943 24.9127C51.7777 25.345 51.7612 25.7357 51.7446 26.0848C51.7446 26.4173 51.7198 26.7498 51.6702 27.0823C51.604 27.4148 51.5295 27.7224 51.4468 28.005C51.3806 28.271 51.2896 28.4788 51.1737 28.6284L51.0248 29.1521C50.9917 29.2685 50.9503 29.3682 50.9007 29.4514C50.851 29.5179 50.8097 29.5677 50.7766 29.601C50.7104 29.6841 50.6442 29.8337 50.578 30.0499C50.4952 30.2328 50.4456 30.4073 50.4291 30.5736C50.4125 30.7066 50.3877 30.8313 50.3546 30.9476C50.338 31.0806 50.3215 31.197 50.3049 31.2968C50.3049 31.4131 50.3132 31.4963 50.3298 31.5461L50.4291 31.7456C50.4456 31.8121 50.4621 31.862 50.4787 31.8953C50.4952 31.9451 50.5118 31.995 50.5283 32.0449C50.5283 32.0948 50.5035 32.128 50.4539 32.1446C50.4208 32.1613 50.3711 32.1862 50.3049 32.2195C50.2222 32.2693 50.1395 32.2943 50.0567 32.2943C49.9409 32.2943 49.825 32.3275 49.7092 32.394C49.643 32.4106 49.5851 32.4106 49.5354 32.394C49.4858 32.394 49.4362 32.4023 49.3865 32.419C49.2376 32.419 49.1714 32.394 49.1879 32.3441C49.221 32.2943 49.1879 32.2693 49.0886 32.2693L48.7908 32.5436C48.7577 32.5769 48.6915 32.5935 48.5922 32.5935C48.4267 32.5935 48.3357 32.5603 48.3191 32.4938C48.3191 32.4938 48.3026 32.4855 48.2695 32.4688L48.1702 32.394C48.0544 32.3774 47.9468 32.3026 47.8475 32.1696C47.7979 32.0698 47.7565 31.9618 47.7234 31.8454C47.6903 31.7456 47.6655 31.6043 47.6489 31.4214C47.6158 31.2386 47.591 31.0308 47.5745 30.798C47.5579 30.5819 47.5414 30.3325 47.5248 30.0499C47.5414 29.9169 47.5414 29.7756 47.5248 29.6259C47.5248 29.4597 47.5165 29.3101 47.5 29.1771C47.5 29.1438 47.5083 29.1189 47.5248 29.1022C47.5248 28.8362 47.5331 28.5702 47.5496 28.3042C47.5662 28.0216 47.5745 27.7806 47.5745 27.581C47.5579 27.4314 47.5579 27.2319 47.5745 26.9825C47.591 26.7332 47.6324 26.409 47.6986 26.01C47.7482 25.5278 47.8061 25.0042 47.8723 24.4389C47.9551 23.857 48.0378 23.2585 48.1206 22.6434L48.4184 20.6983L48.5425 19.4015C48.6087 18.9194 48.6749 18.4289 48.7411 17.9302C48.8239 17.4148 48.8983 16.9077 48.9645 16.409C48.9645 16.3259 48.9811 16.2261 49.0142 16.1097C49.0473 15.9934 49.0804 15.877 49.1135 15.7606C49.1631 15.6276 49.2045 15.5029 49.2376 15.3865C49.2707 15.2702 49.2789 15.1704 49.2624 15.0873C49.1962 14.8712 49.1962 14.6717 49.2624 14.4888C49.3451 14.3059 49.37 14.1064 49.3369 13.8903L49.312 13.7656C49.2624 13.5495 49.2789 13.3167 49.3617 13.0673L49.4113 12.818C49.4444 12.5852 49.4941 12.4106 49.5603 12.2943C49.5768 12.2111 49.5934 12.1363 49.6099 12.0698C49.643 12.0033 49.6761 11.9451 49.7092 11.8953C49.7754 11.7789 49.8581 11.7041 49.9574 11.6708L50.0319 11.6209C50.0815 11.5711 50.156 11.5461 50.2553 11.5461C50.338 11.5461 50.3877 11.5461 50.4042 11.5461C50.4208 11.5461 50.5118 11.5295 50.6773 11.4963C50.7269 11.4963 50.7766 11.4963 50.8262 11.4963C50.8759 11.4796 50.9255 11.4713 50.9751 11.4713C51.0413 11.4713 51.1158 11.5544 51.1985 11.7207C51.2978 11.8703 51.3392 11.995 51.3227 12.0948C51.3889 12.128 51.4468 12.1696 51.4964 12.2195L51.9184 13.0424C52.0177 13.1588 52.1004 13.2751 52.1666 13.3915C52.2328 13.5079 52.2825 13.5993 52.3156 13.6658V13.8155L52.3652 14.1646L52.4148 14.4888C52.4976 14.4057 52.5721 14.3142 52.6382 14.2145C52.7044 14.0981 52.7872 13.9817 52.8865 13.8653L53.2092 13.4913C53.2588 13.4414 53.2919 13.3915 53.3085 13.3416C53.3416 13.2918 53.3746 13.2502 53.4077 13.217C53.4574 13.1006 53.5236 12.9759 53.6063 12.8429C53.7056 12.7099 53.8132 12.5935 53.929 12.4938C54.1607 12.2111 54.3675 12.0283 54.5496 11.9451C54.7813 11.8121 55.0874 11.6874 55.468 11.5711C55.8652 11.4547 56.2292 11.4131 56.5602 11.4464L56.9574 11.3466H57.4538L57.8261 11.4713C58.3391 11.5212 58.7611 11.6542 59.0921 11.8703C59.4727 12.0532 59.7706 12.2195 59.9857 12.3691C60.2008 12.5187 60.4077 12.7099 60.6063 12.9426C60.689 13.0424 60.7469 13.1421 60.78 13.2419C60.8297 13.3416 60.8793 13.458 60.929 13.591C61.0117 13.6741 61.0779 13.7656 61.1275 13.8653C61.1937 13.9651 61.2599 14.0648 61.3261 14.1646C61.4254 14.281 61.5164 14.3973 61.5992 14.5137L61.7481 14.8878C61.8143 15.2702 61.8474 15.6775 61.8474 16.1097C61.8143 16.4921 61.7398 16.8745 61.624 17.2569C61.5247 17.6226 61.4006 17.9551 61.2516 18.2544C61.1193 18.5204 60.9703 18.7697 60.8048 19.0025C60.6394 19.2352 60.4656 19.4597 60.2836 19.6758C59.903 20.0914 59.5472 20.4489 59.2162 20.7481L58.6205 21.2718C58.4219 21.4214 58.215 21.5544 57.9999 21.6708C57.8013 21.7872 57.6027 21.8869 57.4042 21.9701C57.1063 22.0532 56.7753 22.1779 56.4113 22.3441L55.89 22.5436L55.5425 22.7681C55.4597 22.8013 55.3439 22.8595 55.195 22.9426C55.0626 23.0091 54.9716 23.0756 54.9219 23.1421L53.8297 23.5411ZM52.3652 21.2968C52.4148 21.33 52.4645 21.3633 52.5141 21.3965C52.5803 21.4131 52.6382 21.4381 52.6879 21.4713C52.7872 21.5046 52.8534 21.5212 52.8865 21.5212C52.9361 21.4381 53.0189 21.4048 53.1347 21.4214H53.2836C53.3498 21.4048 53.4077 21.3716 53.4574 21.3217L53.507 21.2718L53.5567 21.2469C53.7222 21.1804 53.8794 21.1222 54.0283 21.0723C54.1772 21.0058 54.3262 20.931 54.4751 20.8479C54.5909 20.8146 54.6902 20.7731 54.773 20.7232C54.8557 20.6733 54.955 20.6068 55.0709 20.5237C55.3025 20.3408 55.5094 20.1413 55.6914 19.9252C55.89 19.6924 56.1051 19.4264 56.3368 19.1272C56.7174 18.5952 57.0401 18.0216 57.3049 17.4065C57.5862 16.7914 57.7848 16.1679 57.9006 15.5362L57.9751 15.0125C57.9916 14.8628 57.9999 14.7215 57.9999 14.5885C57.9999 14.4389 57.9999 14.2976 57.9999 14.1646C58.0164 13.9651 58.0082 13.7822 57.9751 13.616C57.9585 13.4331 57.9337 13.2668 57.9006 13.1172L57.7517 12.8429L57.6772 12.793C57.4952 12.6101 57.2883 12.4938 57.0566 12.4439C56.8415 12.3774 56.5767 12.3857 56.2623 12.4688L56.0637 12.6185L55.89 12.7681C55.8073 12.8512 55.6914 12.9759 55.5425 13.1421C55.4101 13.3084 55.2777 13.483 55.1453 13.6658C54.8144 13.9651 54.5413 14.2976 54.3262 14.6633C54.1607 15.0291 54.0035 15.3782 53.8546 15.7107C53.7222 16.0266 53.5732 16.3259 53.4077 16.6085C53.325 16.7581 53.2505 16.8994 53.1843 17.0324C53.1347 17.1654 53.0768 17.3234 53.0106 17.5062C52.9775 17.5894 52.9444 17.6725 52.9113 17.7556C52.8947 17.8221 52.8699 17.8969 52.8368 17.9801C52.8368 17.9967 52.8286 18.0133 52.812 18.0299C52.812 18.0299 52.812 18.0466 52.812 18.0798L52.6879 18.6035C52.6217 19.0191 52.539 19.4846 52.4397 20C52.3569 20.5154 52.3321 20.9476 52.3652 21.2968ZM53.507 21.2718C53.4905 21.2718 53.4657 21.2884 53.4326 21.3217L53.507 21.2718Z" fill="white"/>
<path d="M69.9195 23.8404C70.0188 23.7406 70.1016 23.6908 70.1678 23.6908C70.3829 23.6908 70.4987 23.7988 70.5153 24.015C70.5318 24.148 70.4822 24.2976 70.3663 24.4638C70.2505 24.6301 70.1016 24.8296 69.9195 25.0623C69.8533 25.212 69.7292 25.4447 69.5472 25.7606C69.3652 26.0599 69.1831 26.3175 69.0011 26.5337L68.9515 26.7082C68.9515 26.7581 68.9184 26.8163 68.8522 26.8828C68.786 26.9493 68.7446 27.0158 68.7281 27.0823C68.6453 27.182 68.5543 27.2901 68.455 27.4065C68.3723 27.5229 68.2812 27.6392 68.182 27.7556C68.0496 27.9052 67.9172 28.0715 67.7848 28.2544C67.6524 28.4206 67.5283 28.5952 67.4125 28.7781L67.1642 29.1022C67.0153 29.2851 66.8581 29.468 66.6926 29.6509C66.5437 29.8171 66.3782 29.9667 66.1962 30.0998L65.8238 30.3491C65.3936 30.6318 64.9716 30.8728 64.5579 31.0723C64.1442 31.2884 63.6974 31.3882 63.2175 31.3716C63.1182 31.3716 62.9775 31.3633 62.7955 31.3466C62.63 31.33 62.448 31.3051 62.2494 31.2718C62.0508 31.2386 61.8522 31.1887 61.6537 31.1222C61.4716 31.0557 61.3061 30.9726 61.1572 30.8728H61.182C60.9503 30.7897 60.7104 30.6151 60.4622 30.3491C60.2139 30.0831 60.0485 29.6758 59.9657 29.1272C59.8168 28.8944 59.7423 28.6866 59.7423 28.5037L59.6927 28.404C59.6761 28.1546 59.6927 27.8969 59.7423 27.6309C59.7754 27.3649 59.8168 27.0989 59.8664 26.8329V26.7332C59.8995 26.6667 59.9161 26.6085 59.9161 26.5586L59.9657 26.3092C60.0154 26.0765 60.0733 25.8437 60.1395 25.611C60.2057 25.3782 60.305 25.1288 60.4374 24.8628L60.7104 24.4638L60.7352 24.414V24.4389C60.7849 24.3392 60.8428 24.2311 60.909 24.1147C60.9917 23.9817 61.0745 23.8487 61.1572 23.7157C61.2399 23.5827 61.3227 23.4663 61.4054 23.3666C61.4882 23.2668 61.5626 23.192 61.6288 23.1421C61.8605 22.9094 62.117 22.6683 62.3983 22.419C62.6796 22.1696 62.9279 22.0283 63.143 21.995C63.143 21.995 63.143 21.9701 63.143 21.9202C63.1099 21.8038 63.1099 21.7207 63.143 21.6708C63.325 21.5046 63.5402 21.3383 63.7884 21.1721C64.0366 21.0058 64.2269 20.9227 64.3593 20.9227C64.442 20.9227 64.5082 20.9144 64.5579 20.8978C64.6406 20.8811 64.7316 20.8728 64.8309 20.8728C64.9302 20.8728 64.9964 20.8978 65.0295 20.9476C65.0957 20.931 65.1536 20.9227 65.2033 20.9227C65.2695 20.9227 65.3274 20.9227 65.377 20.9227C65.4432 20.9227 65.5756 20.9476 65.7742 20.9975C65.9893 21.0474 66.2127 21.1471 66.4444 21.2968C66.6926 21.4464 66.916 21.6542 67.1146 21.9202C67.3132 22.1696 67.4456 22.5021 67.5118 22.9177C67.5118 23.3001 67.429 23.6658 67.2635 24.015C67.247 24.0648 67.2056 24.1563 67.1394 24.2893C67.0732 24.4223 66.9988 24.5719 66.916 24.7382C66.8333 24.8878 66.734 25.0374 66.6181 25.187C66.5189 25.3367 66.4278 25.4613 66.3451 25.5611L66.221 25.6608C66.039 25.8936 65.8486 26.1097 65.6501 26.3092C65.4515 26.5087 65.2446 26.6999 65.0295 26.8828C64.9468 26.9659 64.8309 27.074 64.682 27.207C64.5331 27.34 64.3758 27.473 64.2104 27.606C64.0449 27.739 63.8877 27.8637 63.7387 27.9801C63.5898 28.0798 63.4822 28.1463 63.416 28.1796L62.8451 28.4788C62.6962 28.6617 62.6135 28.8196 62.5969 28.9526C62.5804 29.069 62.5886 29.2186 62.6217 29.4015L62.6714 29.7756C62.6879 29.9086 62.7872 30.0083 62.9692 30.0748C63.1678 30.1579 63.3747 30.1995 63.5898 30.1995C63.7718 30.1995 64.0201 30.1413 64.3345 30.0249C64.6654 29.9086 65.0212 29.734 65.4018 29.5012C65.7825 29.2685 66.1796 28.9859 66.5933 28.6534C67.007 28.3209 67.3876 27.9302 67.7352 27.4813C67.7683 27.3982 67.8096 27.3234 67.8593 27.2569C67.9255 27.1737 67.9751 27.0989 68.0082 27.0324L68.3557 26.5087C68.5046 26.3092 68.6619 26.0848 68.8273 25.8354C69.0094 25.5694 69.1749 25.3117 69.3238 25.0623C69.4893 24.7963 69.6299 24.5553 69.7458 24.3392C69.8616 24.123 69.9195 23.9568 69.9195 23.8404ZM66.643 23.3915C66.5933 23.325 66.5106 23.2585 66.3947 23.192C66.2624 23.2253 66.0721 23.3583 65.8238 23.591C65.5921 23.8071 65.3687 24.0482 65.1536 24.3142L64.9799 24.4389L64.8309 24.6883L64.7565 24.8379C64.3097 25.4032 63.9373 25.9435 63.6394 26.4589C63.3416 26.9576 63.1513 27.3234 63.0685 27.5561C63.3168 27.4397 63.5402 27.2901 63.7387 27.1072L63.9621 26.9327L64.3841 26.6334C65.013 26.1014 65.526 25.5528 65.9231 24.9875C66.3368 24.4223 66.5768 23.8903 66.643 23.3915Z" fill="white"/>
<path d="M78.7872 23.5411C78.9361 23.3915 79.0768 23.3583 79.2091 23.4414C79.3581 23.5079 79.3994 23.6575 79.3333 23.8903C79.3333 23.99 79.2174 24.1812 78.9857 24.4638C78.8534 24.68 78.721 24.9044 78.5886 25.1372C78.4562 25.3533 78.2907 25.5694 78.0921 25.7855L78.0425 25.8853L77.9432 26.0599C77.7612 26.2427 77.5378 26.4339 77.273 26.6334C77.0248 26.8329 76.7269 27.0241 76.3794 27.207L76.2056 27.2818C76.1063 27.3317 75.9905 27.3815 75.8581 27.4314C75.7423 27.4813 75.6182 27.5229 75.4858 27.5561C75.4361 27.5894 75.3699 27.6226 75.2872 27.6559C75.221 27.6891 75.1631 27.714 75.1134 27.7307H74.8404C74.8238 28.0632 74.7411 28.3874 74.5922 28.7032C74.4432 29.0191 74.3191 29.2685 74.2198 29.4514C74.1702 29.5179 74.0957 29.5844 73.9964 29.6509C73.8971 29.7007 73.7978 29.7506 73.6986 29.8005L73.4752 29.9501C73.409 30 73.3097 30.0499 73.1773 30.0998C73.0449 30.1663 72.896 30.2244 72.7305 30.2743C72.5815 30.3242 72.4243 30.3658 72.2589 30.399C72.1099 30.4323 71.9858 30.4489 71.8865 30.4489C71.7872 30.4655 71.6631 30.4489 71.5142 30.399C71.3818 30.3658 71.2577 30.3242 71.1418 30.2743C71.1253 30.2743 71.0839 30.2577 71.0177 30.2244C70.8522 30.2411 70.6537 30.2078 70.422 30.1247C70.2069 30.0582 69.9752 29.9584 69.727 29.8254L69.7518 29.8504C69.5532 29.7506 69.3794 29.6093 69.2305 29.4264C69.0816 29.2436 68.9906 29.0357 68.9575 28.803C68.9244 28.5702 68.974 28.3541 69.1064 28.1546C69.2553 27.9551 69.4374 27.7889 69.6525 27.6559C69.7683 27.5395 69.9421 27.4397 70.1738 27.3566C70.4054 27.2569 70.6454 27.182 70.8936 27.1322C71.1418 27.0657 71.3652 27.0241 71.5638 27.0075C71.779 26.9909 71.9279 27.0075 72.0106 27.0574C72.1265 26.9909 72.2009 26.8662 72.234 26.6833C72.234 26.6667 72.234 26.65 72.234 26.6334C72.2506 26.6168 72.2589 26.6002 72.2589 26.5835C72.325 26.4505 72.3499 26.3425 72.3333 26.2594C72.3333 26.1264 72.3581 25.985 72.4078 25.8354C72.4409 25.719 72.4657 25.6027 72.4823 25.4863C72.4988 25.3533 72.4823 25.2203 72.4326 25.0873L72.5815 23.9651C72.5319 23.8653 72.4988 23.7656 72.4823 23.6658C72.4823 23.5661 72.474 23.4663 72.4574 23.3666C72.4574 23.1671 72.4161 22.9759 72.3333 22.793C72.3002 22.66 72.2671 22.527 72.234 22.394C72.2175 22.261 72.1678 22.1197 72.0851 21.9701C72.052 21.9368 72.0106 21.8454 71.961 21.6958C71.9113 21.7124 71.8203 21.8288 71.6879 22.0449C71.5721 22.261 71.4232 22.5353 71.2411 22.8678C71.026 23.2502 70.7861 23.6741 70.5213 24.1397C70.2731 24.5885 70.0083 24.9792 69.727 25.3117C69.6773 25.3782 69.6359 25.3865 69.6028 25.3367C69.5698 25.2868 69.5449 25.212 69.5284 25.1122C69.5284 24.9958 69.5449 24.8712 69.578 24.7382C69.6111 24.5885 69.6608 24.4472 69.727 24.3142C69.7766 24.2311 69.8842 24.0316 70.0497 23.7157C70.2151 23.3998 70.3972 23.059 70.5957 22.6933C70.7943 22.3109 70.9764 21.9451 71.1418 21.596C71.3073 21.2469 71.4149 21.0058 71.4645 20.8728L71.3156 18.0798C71.3487 17.9468 71.4149 17.8055 71.5142 17.6559C71.63 17.4896 71.7541 17.34 71.8865 17.207C71.9693 17.1072 72.0437 17.0075 72.1099 16.9077C72.1927 16.7914 72.2506 16.6916 72.2837 16.6085L72.383 16.5087C72.6477 16.2427 72.8298 16.0931 72.9291 16.0599C73.0284 16.01 73.169 16.0515 73.351 16.1845L73.4503 16.2594C73.5331 16.3092 73.6241 16.3674 73.7234 16.4339C73.8227 16.4838 73.9302 16.5586 74.0461 16.6584C74.195 16.8412 74.3357 17.0324 74.4681 17.2319C74.617 17.4148 74.7163 17.6226 74.7659 17.8554L74.8404 18.1546C74.8569 18.2045 74.8735 18.2627 74.89 18.3292C74.9066 18.3791 74.9231 18.4456 74.9397 18.5287C74.9728 18.7116 74.9149 18.9194 74.7659 19.1521C74.6335 19.3849 74.4763 19.6176 74.2943 19.8504C74.195 19.9834 74.0957 20.1247 73.9964 20.2743C73.9137 20.4073 73.8475 20.532 73.7978 20.6484C73.864 20.7481 73.9551 20.9227 74.0709 21.1721C74.1867 21.4048 74.3026 21.6542 74.4184 21.9202C74.5342 22.1696 74.6418 22.419 74.7411 22.6683C74.8404 22.9011 74.9149 23.0756 74.9645 23.192L75.2872 23.4913L75.5602 24.2394C75.643 24.3059 75.6761 24.3558 75.6595 24.389C75.643 24.4223 75.6182 24.4722 75.5851 24.5387C75.5685 24.5553 75.552 24.5802 75.5354 24.6135C75.5354 24.6467 75.5437 24.6717 75.5602 24.6883L75.5851 24.788L75.6347 24.9377C75.6347 25.0208 75.6513 25.1288 75.6844 25.2618C75.7174 25.3948 75.734 25.5029 75.734 25.586C75.734 25.6692 75.7174 25.744 75.6844 25.8105C75.6678 25.9269 75.5851 26.0848 75.4361 26.2843C75.3699 26.3674 75.312 26.4672 75.2624 26.5835C75.2127 26.6833 75.1796 26.783 75.1631 26.8828L75.6844 26.7082C75.8333 26.675 75.9739 26.6251 76.1063 26.5586C76.2387 26.4921 76.3546 26.4173 76.4538 26.3342H76.429L76.5035 26.2843C76.9338 25.985 77.2978 25.6608 77.5957 25.3117C77.8936 24.946 78.1831 24.547 78.4645 24.1147C78.5638 23.9651 78.6713 23.7739 78.7872 23.5411ZM71.8617 27.8304C71.8451 27.8138 71.7459 27.8221 71.5638 27.8554C71.3983 27.8886 71.1998 27.9468 70.9681 28.0299C70.7364 28.1131 70.5047 28.2211 70.2731 28.3541C70.0414 28.4705 69.8759 28.6118 69.7766 28.7781C69.7435 28.8778 69.7932 28.9776 69.9255 29.0773C70.0579 29.1604 70.2151 29.202 70.3972 29.202C70.5296 29.202 70.695 29.1604 70.8936 29.0773C71.4232 28.8612 71.7459 28.4456 71.8617 27.8304Z" fill="white"/>
<path d="M84.0392 14.7631C83.94 15.212 83.8241 15.6775 83.6917 16.1596C83.5593 16.6417 83.4104 17.1654 83.2449 17.7307L85.3052 17.8304C85.3714 17.847 85.4458 17.847 85.5286 17.8304C85.6279 17.7972 85.7189 17.7889 85.8016 17.8055C86.5132 17.872 87.109 17.98 87.5889 18.1297C88.0853 18.2793 88.4825 18.4539 88.7803 18.6534C89.0948 18.8529 89.3264 19.0607 89.4754 19.2768C89.6243 19.4929 89.7153 19.6924 89.7484 19.8753C89.765 20.0083 89.7319 20.0831 89.6491 20.0998C89.5664 20.1164 89.4919 20.1164 89.4257 20.0998C89.3926 20.1164 89.3595 20.1247 89.3264 20.1247C89.3099 20.1081 89.2851 20.0998 89.252 20.0998C89.2189 19.9501 89.0948 19.8088 88.8796 19.6758C88.6645 19.5262 88.3915 19.3932 88.0605 19.2768C87.7295 19.1438 87.3406 19.0357 86.8938 18.9526C86.4636 18.8529 86.0168 18.7781 85.5534 18.7282C85.4707 18.7448 85.4045 18.7448 85.3548 18.7282C85.3052 18.7116 85.2473 18.7032 85.1811 18.7032L83.0215 18.6035C82.8891 19.1521 82.7898 19.7174 82.7237 20.2993C82.674 20.8645 82.5582 21.4131 82.3761 21.9451L82.4258 22.5187C82.2272 23.1505 82.0203 23.7656 81.8052 24.3641C81.6066 24.946 81.4246 25.4946 81.2591 26.01C81.0936 26.5254 80.9613 26.9992 80.862 27.4314C80.7627 27.8637 80.7296 28.2377 80.7627 28.5536C80.7627 28.7199 80.8206 28.8778 80.9364 29.0274C81.0523 28.9942 81.1929 28.9111 81.3584 28.7781C81.5404 28.6284 81.7308 28.4539 81.9293 28.2544C82.1445 28.0549 82.3596 27.8304 82.5747 27.581C82.8064 27.3317 83.0215 27.0823 83.2201 26.8329C83.4683 26.517 83.7496 26.1762 84.0641 25.8105C84.3785 25.4447 84.6019 25.0873 84.7343 24.7382C84.7508 24.7215 84.817 24.5885 84.9328 24.3392C85.0652 24.0898 85.2142 23.8155 85.3797 23.5162C85.5451 23.217 85.7023 22.951 85.8513 22.7182C86.0168 22.4688 86.1326 22.3441 86.1988 22.3441C86.2815 22.3441 86.3395 22.4023 86.3726 22.5187C86.3726 22.5686 86.3477 22.6434 86.2981 22.7431C86.3312 22.7764 86.3477 22.8346 86.3477 22.9177C86.2981 23.2668 86.0581 23.8238 85.6279 24.5885C85.1976 25.3367 84.6102 26.1845 83.8655 27.1322L82.9719 28.2544C82.5416 28.7365 82.1114 29.1604 81.6811 29.5262C81.2509 29.8919 80.8785 30.0748 80.5641 30.0748C80.2166 30.0748 79.9435 30 79.745 29.8504C79.5629 29.6841 79.414 29.4763 79.2982 29.2269C79.1658 29.1106 79.0251 28.9859 78.8762 28.8529C78.7272 28.7032 78.5866 28.5536 78.4542 28.404C78.3218 28.2544 78.206 28.1131 78.1067 27.9801C78.0239 27.8304 77.9743 27.6891 77.9577 27.5561C77.9246 27.1239 77.9908 26.5254 78.1563 25.7606C78.3218 24.9792 78.57 24.148 78.901 23.2668L78.8762 23.0175C78.9424 22.7847 78.992 22.5603 79.0251 22.3441C79.0748 22.128 79.1409 21.9119 79.2237 21.6958C79.3726 21.197 79.4802 20.6816 79.5464 20.1496C79.6291 19.6176 79.7284 19.0773 79.8442 18.5287L78.4045 18.3541C77.8585 18.3042 77.3455 18.2294 76.8656 18.1297C76.3691 18.0299 75.9471 17.9135 75.5996 17.7805C75.2355 17.6475 74.9459 17.4896 74.7308 17.3067C74.4991 17.1239 74.375 16.9327 74.3585 16.7332C74.3585 16.65 74.3999 16.6085 74.4826 16.6085C74.5157 16.5919 74.5488 16.5835 74.5819 16.5835C74.615 16.5835 74.6646 16.6168 74.7308 16.6833L75.0783 16.6085C75.4589 16.7747 75.9057 16.9244 76.4187 17.0574C76.9317 17.1737 77.5771 17.2652 78.3549 17.3317C78.7024 17.3649 79.0168 17.3815 79.2982 17.3815C79.596 17.3815 79.8691 17.3982 80.1173 17.4314L80.0925 17.581L80.7627 15.7855C80.8123 15.6027 80.8702 15.4281 80.9364 15.2618C81.0192 15.0956 81.0771 14.921 81.1102 14.7382C81.1764 14.3225 81.226 13.8986 81.2591 13.4663C81.3088 13.0341 81.3501 12.6517 81.3832 12.3192C81.4163 11.9867 81.466 11.7124 81.5322 11.4963C81.5984 11.2801 81.7059 11.1721 81.8549 11.1721C81.9707 11.1721 82.1196 11.2136 82.3017 11.2968C82.5002 11.3799 82.6906 11.5046 82.8726 11.6708C83.0546 11.8204 83.2201 12.0199 83.369 12.2693C83.518 12.5187 83.609 12.8013 83.6421 13.1172C83.6421 13.1837 83.6421 13.2502 83.6421 13.3167C83.6421 13.3832 83.6338 13.458 83.6173 13.5411C83.6504 13.6076 83.6835 13.6991 83.7166 13.8155C83.7496 13.9318 83.7827 14.0565 83.8158 14.1895C83.8489 14.3059 83.882 14.4223 83.9151 14.5387C83.9482 14.6384 83.9896 14.7132 84.0392 14.7631Z" fill="white"/>
<path d="M88.498 28.8279C88.4152 28.8944 88.3159 28.9526 88.2001 29.0025C88.1008 29.0524 87.985 29.1106 87.8526 29.1771L87.8774 29.202L87.9022 29.2519C87.9022 29.2352 87.9271 29.2519 87.9767 29.3017C88.0264 29.335 88.0677 29.3682 88.1008 29.4015C88.167 29.4347 88.2249 29.4763 88.2746 29.5262C88.3242 29.5761 88.3573 29.6176 88.3739 29.6509L88.4235 29.8005L88.4483 29.8254C88.5973 30.0083 88.7297 30.1912 88.8455 30.3741C88.9779 30.5736 89.0772 30.7814 89.1434 30.9975L89.193 32.02C89.2261 32.286 89.2509 32.5436 89.2675 32.793C89.284 33.0424 89.2923 33.2835 89.2923 33.5162C89.2923 34.6301 89.0854 35.4946 88.6717 36.1097C88.2746 36.7415 87.7781 37.1239 87.1824 37.2569C87.1658 37.2569 87.1493 37.2569 87.1327 37.2569C87.1327 37.2735 87.1245 37.2818 87.1079 37.2818H87.0831C86.6528 37.182 86.3053 37.0407 86.0406 36.8579C85.7758 36.675 85.5524 36.4256 85.3703 36.1097C85.1883 35.8105 85.0228 35.4447 84.8739 35.0125C84.725 34.5802 84.5595 34.0732 84.3774 33.4913V33.2668C84.3444 33.1006 84.3361 32.9593 84.3526 32.8429L84.2037 31.9701L84.1044 31.3965C84.0713 31.197 84.0382 31.0308 84.0051 30.8978V30.9227L83.9803 30.7731C83.9637 30.6567 83.9555 30.5403 83.9555 30.4239C83.9389 30.3076 83.9306 30.1912 83.9306 30.0748L83.881 29.4264L83.9555 27.2818L83.9058 27.0823C83.9224 27.0324 83.9306 26.9742 83.9306 26.9077C83.9141 26.8412 83.8975 26.7747 83.881 26.7082V25.8603C83.881 25.2618 83.9141 24.5885 83.9803 23.8404C84.0465 23.0756 84.154 22.3026 84.303 21.5212C84.3857 21.0058 84.485 20.4738 84.6008 19.9252C84.7167 19.3599 84.8408 18.803 84.9732 18.2544C85.1056 17.7057 85.2462 17.182 85.3952 16.6833C85.5607 16.1679 85.7179 15.6941 85.8668 15.2618C86.1316 14.6135 86.4956 14.0648 86.959 13.616C87.4389 13.1671 87.9436 12.7764 88.4732 12.4439C88.7876 12.261 89.1185 12.0948 89.4661 11.9451C89.8136 11.7955 90.1776 11.6791 90.5582 11.596C90.6079 11.5794 90.6658 11.5711 90.732 11.5711C90.7982 11.5711 90.8644 11.5711 90.9306 11.5711C91.3112 11.5711 91.6753 11.6958 92.0228 11.9451C92.3868 12.1945 92.6599 12.6683 92.8419 13.3666C92.8916 13.5162 92.9164 13.6658 92.9164 13.8155C92.9164 13.9485 92.8998 14.0732 92.8667 14.1895C92.8502 14.3059 92.8254 14.4306 92.7923 14.5636C92.7592 14.6966 92.7261 14.8462 92.693 15.0125C92.6764 15.1621 92.6599 15.345 92.6433 15.5611L92.2213 15.8354C92.2048 15.8853 92.1965 15.9684 92.1965 16.0848C92.1965 16.2012 92.18 16.3508 92.1469 16.5337C92.1138 16.7165 92.0062 16.9825 91.8242 17.3317H91.849L91.6256 17.8304C91.5594 17.9135 91.4932 18.0299 91.427 18.1796C91.3774 18.3126 91.3195 18.4539 91.2533 18.6035C91.1705 18.7864 91.0878 18.9609 91.005 19.1272C90.9389 19.2934 90.8644 19.4347 90.7816 19.5511L90.4093 19.9751L90.1363 20.3491C90.1032 20.399 90.0618 20.4572 90.0121 20.5237C89.979 20.5736 89.9377 20.6234 89.888 20.6733L89.5902 21.0474C89.4081 21.2136 89.2344 21.3965 89.0689 21.596C88.92 21.7955 88.8041 21.9535 88.7214 22.0698L88.3987 22.1696C88.3159 22.3192 88.2415 22.4439 88.1753 22.5436C88.1422 22.5935 88.1091 22.66 88.076 22.7431C88.0429 22.8096 88.0015 22.9094 87.9519 23.0424C87.9353 23.0923 87.894 23.1754 87.8278 23.2918C87.7781 23.3915 87.7202 23.4913 87.654 23.591C87.5878 23.7074 87.5134 23.8736 87.4306 24.0898C87.381 24.2062 87.3479 24.3641 87.3313 24.5636C87.3148 24.7465 87.3065 24.946 87.3065 25.1621L87.232 26.01L87.1327 26.3591V26.4589C87.1327 26.4921 87.1245 26.517 87.1079 26.5337C87.1079 26.5503 87.1162 26.5752 87.1327 26.6085C87.1493 26.6417 87.1658 26.6833 87.1824 26.7332C87.1989 26.7664 87.2072 26.7914 87.2072 26.808C87.2403 26.8911 87.2569 27.0241 87.2569 27.207C87.2569 27.2901 87.2486 27.3649 87.232 27.4314C87.232 27.4979 87.232 27.5727 87.232 27.6559C87.2155 27.739 87.2072 27.8138 87.2072 27.8803C87.2072 27.9468 87.2072 28.0216 87.2072 28.1047C87.2072 28.1546 87.2072 28.2128 87.2072 28.2793C87.2238 28.3292 87.232 28.3791 87.232 28.4289C87.2486 28.4456 87.2569 28.4622 87.2569 28.4788L87.3065 28.4539L87.7781 28.3541C88.0429 28.2211 88.4814 27.9634 89.0937 27.581C89.706 27.182 90.3514 26.5669 91.0299 25.7357L91.2533 25.4364L92.2958 23.8653C92.3124 23.8321 92.3289 23.7905 92.3455 23.7406C92.362 23.6908 92.362 23.6326 92.3455 23.5661C92.4282 23.4663 92.5192 23.3998 92.6185 23.3666C92.7178 23.3333 92.8088 23.3167 92.8916 23.3167C92.9743 23.35 93.0239 23.4248 93.0405 23.5411C93.0405 23.6409 92.9908 23.7905 92.8916 23.99L92.8419 24.0648C92.8585 24.0815 92.8667 24.0981 92.8667 24.1147C92.8667 24.1978 92.8419 24.2643 92.7923 24.3142V24.2893L92.6433 24.5137L92.4448 24.7631V24.7382L92.3703 24.9875L92.2462 25.1621C92.2131 25.2951 92.1138 25.478 91.9483 25.7107C91.7994 25.9269 91.6504 26.1097 91.5015 26.2594L91.0795 26.9077C90.9802 27.0906 90.7982 27.2652 90.5334 27.4314C90.2852 27.581 90.0452 27.7473 89.8136 27.9302L89.3419 28.3541C89.2261 28.4539 89.0937 28.537 88.9448 28.6035C88.7958 28.6534 88.6469 28.7282 88.498 28.8279ZM87.6788 21.6958V21.7706L87.7037 21.7207C87.7699 21.6874 87.9271 21.5628 88.1753 21.3466C88.4401 21.1305 88.7214 20.8728 89.0192 20.5736C89.3337 20.2577 89.6315 19.9169 89.9129 19.5511C90.2107 19.1687 90.4176 18.803 90.5334 18.4539C90.732 18.1712 90.9223 17.847 91.1043 17.4813C91.3029 17.1155 91.4849 16.7415 91.6504 16.3591C91.8159 15.9767 91.9483 15.5943 92.0476 15.212C92.1469 14.813 92.1965 14.4472 92.1965 14.1147C92.1965 13.9318 92.1717 13.749 92.1221 13.5661C92.0393 13.2336 91.8656 12.9593 91.6008 12.7431C91.3526 12.527 91.063 12.4439 90.732 12.4938C90.4341 12.5436 90.219 12.6185 90.0866 12.7182C89.9708 12.818 89.8549 12.9676 89.7391 13.1671L89.5405 13.5411C89.5405 13.5578 89.5322 13.5744 89.5157 13.591C89.5157 13.591 89.5157 13.5993 89.5157 13.616C89.4992 13.7157 89.4578 13.8071 89.3916 13.8903C89.1599 14.3225 88.9696 14.8213 88.8207 15.3865C88.6717 15.9352 88.5311 16.4838 88.3987 17.0324C88.3821 17.1488 88.3573 17.2652 88.3242 17.3815C88.3077 17.4813 88.2911 17.5894 88.2746 17.7057C88.1918 18.0382 88.1256 18.3874 88.076 18.7531C88.0264 19.1189 87.985 19.468 87.9519 19.8005C87.9188 20.0997 87.8857 20.399 87.8526 20.6983C87.8195 20.9809 87.7699 21.2469 87.7037 21.4963L87.6788 21.6958ZM87.7037 30.6733C87.654 30.5736 87.5878 30.4904 87.5051 30.4239C87.4389 30.3574 87.3644 30.2909 87.2817 30.2244C87.232 30.5736 87.2072 30.9892 87.2072 31.4713C87.2072 32.0698 87.232 32.6766 87.2817 33.2918C87.3479 33.9235 87.4306 34.4223 87.5299 34.788V34.8878L87.6044 35.0873L87.6788 35.3616C87.7119 35.4613 87.7533 35.5445 87.803 35.611C87.8526 35.6941 87.894 35.7273 87.9271 35.7107C88.0594 35.6775 88.1422 35.5777 88.1753 35.4115C88.2084 35.2452 88.2415 35.0623 88.2746 34.8628C88.2746 34.8462 88.2746 34.8296 88.2746 34.813C88.2911 34.813 88.2994 34.8047 88.2994 34.788L88.3242 34.4638C88.3408 34.3308 88.3408 34.1812 88.3242 34.015C88.3242 33.8487 88.3159 33.6825 88.2994 33.5162C88.2828 33.3832 88.2663 33.2419 88.2498 33.0923C88.2498 32.9593 88.2498 32.8263 88.2498 32.6933C88.2332 32.66 88.2249 32.6185 88.2249 32.5686C88.2249 32.5353 88.2249 32.5021 88.2249 32.4688V32.419L88.2001 31.995C88.167 31.9618 88.1505 31.9368 88.1505 31.9202C88.1505 31.9036 88.1422 31.887 88.1256 31.8703V31.8454L88.0512 31.5461C88.0181 31.4464 87.9767 31.3383 87.9271 31.2219C87.8774 31.1056 87.8195 30.9809 87.7533 30.8479L87.7285 30.7731L87.7037 30.6733Z" fill="white"/>
<path d="M98.0891 28.1546C97.9237 28.1546 97.7582 28.1214 97.5927 28.0549C97.5596 28.1214 97.5182 28.1712 97.4686 28.2045C97.4355 28.2377 97.3941 28.271 97.3445 28.3042C97.2783 28.3541 97.2121 28.4206 97.1459 28.5037C97.0797 28.5702 97.0218 28.6866 96.9721 28.8529C96.8563 29.0856 96.6825 29.3101 96.4509 29.5262C96.2357 29.7257 95.9958 29.9002 95.731 30.0499C95.4662 30.1995 95.1849 30.3159 94.887 30.399C94.6057 30.4988 94.3492 30.5486 94.1175 30.5486H94.0431C94.0265 30.5486 94.01 30.5403 93.9934 30.5237C93.9769 30.5237 93.9603 30.5237 93.9438 30.5237L93.5963 30.4239L93.1991 30.2244H93.075C92.4958 30.1413 91.9663 29.8421 91.4864 29.3267C91.023 28.7947 90.7582 28.1629 90.6921 27.4314C90.6755 27.182 90.6838 26.9576 90.7169 26.7581C90.7334 26.542 90.7582 26.3259 90.7913 26.1097C90.7913 26.0765 90.7996 26.0515 90.8162 26.0349C90.8162 26.0017 90.8162 25.9684 90.8162 25.9352C90.7831 25.6359 90.841 25.2702 90.9899 24.8379C91.1223 24.389 91.3209 23.9401 91.5857 23.4913C91.867 23.0258 92.1979 22.5935 92.5786 22.1945C92.9592 21.7789 93.3729 21.4547 93.8197 21.2219L93.9438 21.1222C94.2086 20.9393 94.4899 20.8063 94.7878 20.7232C95.0856 20.6401 95.3504 20.5985 95.5821 20.5985C95.7145 20.5985 95.8386 20.6068 95.9544 20.6234C96.0702 20.6401 96.1861 20.6733 96.3019 20.7232C96.7818 20.9559 97.1707 21.2136 97.4686 21.4963C97.783 21.7789 97.965 22.1613 98.0147 22.6434V22.6683C98.0312 22.7515 98.023 22.8429 97.9899 22.9426C97.9568 23.0424 97.783 23.0923 97.4686 23.0923H97.2948C96.7818 23.1421 96.2937 23.3666 95.8303 23.7656C95.3669 24.1646 94.9532 24.6384 94.5892 25.187C94.2417 25.7357 93.9603 26.3092 93.7452 26.9077C93.5466 27.5062 93.4473 28.0299 93.4473 28.4788C93.4473 28.6118 93.4887 28.7614 93.5715 28.9277C93.6707 29.0939 93.7783 29.2519 93.8941 29.4015C94.0265 29.5345 94.1589 29.6509 94.2913 29.7506C94.4237 29.8504 94.5478 29.9002 94.6636 29.9002C94.7464 29.9002 94.8126 29.8836 94.8622 29.8504C94.9119 29.8171 94.9698 29.7839 95.036 29.7506C95.0856 29.7174 95.1435 29.6841 95.2097 29.6509C95.2759 29.601 95.3504 29.5594 95.4331 29.5262C95.5821 29.4597 95.7393 29.335 95.9048 29.1521C96.0702 28.9692 96.2192 28.7781 96.3516 28.5786C96.5005 28.3624 96.6246 28.1546 96.7239 27.9551C96.8397 27.7556 96.9142 27.606 96.9473 27.5062C96.6991 27.1904 96.5419 26.9327 96.4757 26.7332C96.4095 26.5337 96.3764 26.3425 96.3764 26.1596C96.3764 26.0432 96.3764 25.9269 96.3764 25.8105C96.3929 25.6941 96.3929 25.5611 96.3764 25.4115C96.3433 25.0125 96.3929 24.68 96.5253 24.414C96.6577 24.1313 96.8563 23.99 97.1211 23.99C97.1542 23.99 97.179 23.99 97.1955 23.99C97.2121 23.9734 97.2369 23.9651 97.27 23.9651C97.4024 23.9485 97.5265 23.9568 97.6423 23.99C97.7582 24.0066 97.8326 24.0815 97.8657 24.2145H97.9154C97.9319 24.2311 97.965 24.2976 98.0147 24.414C98.0809 24.5137 98.1222 24.6301 98.1388 24.7631C98.1553 24.7963 98.1636 24.8545 98.1636 24.9377C98.1967 25.0208 98.2298 25.0707 98.2629 25.0873C98.296 25.1039 98.296 25.1787 98.2629 25.3117C98.2298 25.4946 98.2215 25.611 98.2381 25.6608V25.7357C98.2381 25.7523 98.2298 25.7689 98.2133 25.7855C98.2133 25.8022 98.2133 25.8188 98.2133 25.8354V25.8853L98.2381 25.8603V25.8853C98.2546 25.9019 98.2629 25.9435 98.2629 26.01C98.2629 26.0765 98.2712 26.143 98.2877 26.2095C98.3043 26.2594 98.3125 26.3175 98.3125 26.384L98.2629 26.6085C98.2298 26.7249 98.1884 26.8412 98.1388 26.9576C98.1057 27.0574 98.0561 27.1654 97.9899 27.2818L98.0147 27.3317C98.0478 27.3815 98.0891 27.4314 98.1388 27.4813C98.1884 27.5145 98.3043 27.5312 98.4863 27.5312C98.6352 27.5312 98.8255 27.473 99.0572 27.3566C99.3054 27.2236 99.504 27.0657 99.653 26.8828C99.8846 26.6002 100.133 26.251 100.398 25.8354C100.679 25.4198 100.902 25.054 101.068 24.7382C101.084 24.7215 101.109 24.6717 101.142 24.5885C101.175 24.5054 101.217 24.3973 101.266 24.2643C101.366 24.015 101.473 23.7656 101.589 23.5162C101.705 23.2502 101.829 23.1172 101.961 23.1172C102.127 23.1172 102.226 23.217 102.259 23.4165L102.135 23.7157H102.16C102.044 24.2311 101.846 24.7797 101.564 25.3616C101.283 25.9269 100.952 26.4422 100.571 26.9077C100.207 27.3566 99.8019 27.714 99.3551 27.9801C98.9248 28.2294 98.5029 28.2876 98.0891 28.1546ZM97.3445 26.6085V26.6833C97.3776 26.6002 97.4024 26.517 97.4189 26.4339C97.4355 26.3508 97.452 26.2677 97.4686 26.1845V25.8853C97.452 25.7855 97.4272 25.6941 97.3941 25.611C97.3776 25.5278 97.3196 25.478 97.2204 25.4613C97.2038 25.4613 97.1873 25.4863 97.1707 25.5362C97.1542 25.586 97.1459 25.6359 97.1459 25.6858C97.1459 25.719 97.1376 25.7606 97.1211 25.8105C97.1211 25.8437 97.1293 25.9269 97.1459 26.0599V26.0848C97.179 26.118 97.2038 26.1762 97.2204 26.2594C97.2535 26.3259 97.2783 26.4007 97.2948 26.4838L97.3445 26.6085Z" fill="white"/>
<path d="M103.396 28.9526C103.016 28.9194 102.685 28.7864 102.404 28.5536C102.139 28.3042 101.915 28.0299 101.733 27.7307C101.568 27.4314 101.436 27.1405 101.336 26.8579C101.253 26.5752 101.204 26.3674 101.187 26.2344C101.138 25.8853 101.113 25.5112 101.113 25.1122C101.113 24.1812 101.237 23.1671 101.485 22.0698C101.485 21.9701 101.493 21.7789 101.51 21.4963C101.527 21.2136 101.551 20.8894 101.584 20.5237C101.634 20.1579 101.684 19.7922 101.733 19.4264C101.8 19.0441 101.858 18.7199 101.907 18.4539C101.907 18.138 101.932 17.8138 101.982 17.4813C102.048 17.1322 102.122 16.8246 102.205 16.5586C102.271 16.3092 102.329 16.0599 102.379 15.8105C102.445 15.5445 102.486 15.2702 102.503 14.9875C102.503 14.9709 102.511 14.8961 102.528 14.7631C102.561 14.6135 102.602 14.4472 102.652 14.2643L102.577 14.0898C102.577 14.0067 102.586 13.9568 102.602 13.9401C102.652 13.5245 102.701 13.084 102.751 12.6185C102.801 12.153 102.867 11.729 102.95 11.3466C103.032 10.9476 103.123 10.6234 103.223 10.3741C103.339 10.1247 103.471 10 103.62 10C103.802 10 104.075 10.1081 104.439 10.3242C104.82 10.5237 105.126 10.8396 105.357 11.2718C105.589 11.4048 105.821 11.6209 106.053 11.9202C106.284 12.2195 106.441 12.5769 106.524 12.9925C106.574 13.2751 106.532 13.6575 106.4 14.1397C106.268 14.6052 106.11 15.1205 105.928 15.6858V15.7606C105.945 15.8437 105.953 15.9185 105.953 15.985C105.97 16.0515 105.978 16.1264 105.978 16.2095L105.308 18.5037C105.341 18.7032 105.366 18.9443 105.382 19.2269C105.399 19.4929 105.415 19.7091 105.432 19.8753C105.432 19.9086 105.432 19.9418 105.432 19.9751C105.448 19.9917 105.457 20.0166 105.457 20.0499V20.1496L104.737 22.3441C104.737 22.4273 104.745 22.4938 104.762 22.5436V22.5935L104.811 22.8678C104.828 22.9177 104.836 23.0258 104.836 23.192C104.836 23.2918 104.853 23.4248 104.886 23.591C104.77 23.9235 104.662 24.2394 104.563 24.5387C104.48 24.8213 104.398 25.1039 104.315 25.3865L104.439 26.2095C104.224 26.808 104.133 27.2569 104.166 27.5561C104.199 27.6725 104.257 27.7307 104.34 27.7307C104.439 27.7307 104.605 27.6143 104.836 27.3815C105.084 27.1322 105.349 26.8163 105.631 26.4339C105.912 26.0515 106.193 25.6276 106.474 25.1621C106.772 24.6966 107.037 24.2394 107.269 23.7905H107.244C107.277 23.7406 107.294 23.6908 107.294 23.6409C107.31 23.591 107.327 23.5495 107.343 23.5162L107.418 23.217V23.2419C107.451 23.1754 107.5 23.084 107.567 22.9676C107.633 22.8346 107.699 22.6933 107.765 22.5436C107.881 22.3109 107.989 22.0948 108.088 21.8953C108.187 21.6958 108.27 21.596 108.336 21.596H108.386C108.469 21.5129 108.56 21.4713 108.659 21.4713C108.775 21.4713 108.857 21.5295 108.907 21.6459C108.907 21.729 108.874 21.8703 108.808 22.0698C108.758 22.2527 108.593 22.6018 108.311 23.1172H108.336L108.237 23.3666C108.088 23.7656 107.865 24.2394 107.567 24.788C107.285 25.32 106.971 25.852 106.623 26.384C106.64 26.3674 106.623 26.3924 106.574 26.4589C106.541 26.5087 106.508 26.5503 106.474 26.5835C106.342 26.783 106.201 26.9909 106.053 27.207C105.92 27.4231 105.779 27.6226 105.631 27.8055C105.482 27.9884 105.333 28.1463 105.184 28.2793C105.035 28.3957 104.902 28.4539 104.787 28.4539C104.77 28.4539 104.753 28.4539 104.737 28.4539C104.72 28.4372 104.704 28.4289 104.687 28.4289C104.422 28.5952 104.191 28.7282 103.992 28.8279C103.794 28.9111 103.595 28.9526 103.396 28.9526Z" fill="white"/>
<path d="M112.919 24.1147C113.068 23.9651 113.225 23.9152 113.39 23.9651C113.556 23.9983 113.581 24.148 113.465 24.414C113.498 24.4805 113.498 24.5303 113.465 24.5636C113.448 24.5636 113.44 24.5719 113.44 24.5885C113.341 24.7215 113.258 24.8545 113.192 24.9875L112.993 25.3367C112.844 25.6193 112.67 25.9268 112.472 26.2594C112.29 26.5752 112.083 26.9077 111.851 27.2569V27.2319C111.818 27.2984 111.802 27.3649 111.802 27.4314V27.4564L111.628 27.7307C111.479 27.9634 111.322 28.1962 111.156 28.4289C110.991 28.6451 110.809 28.8612 110.61 29.0773L110.387 29.3267C110.188 29.5761 109.973 29.8171 109.741 30.0499L109.617 30.1247C109.435 30.2411 109.27 30.3491 109.121 30.4489C108.972 30.5486 108.823 30.6318 108.674 30.6983V30.6733C108.492 30.7731 108.31 30.8313 108.128 30.8479C107.962 30.8811 107.797 30.8894 107.631 30.8728C107.201 30.7897 106.837 30.5985 106.539 30.2993C106.258 30 106.051 29.6675 105.919 29.3017C105.852 29.1189 105.811 28.9277 105.795 28.7282C105.761 28.5287 105.728 28.3375 105.695 28.1546C105.679 28.0715 105.67 27.9884 105.67 27.9052C105.654 27.8055 105.646 27.714 105.646 27.6309C105.646 27.5478 105.654 27.473 105.67 27.4065C105.67 27.34 105.67 27.2652 105.67 27.182V26.7332C105.704 26.4672 105.745 26.2095 105.795 25.9601C105.844 25.7107 105.902 25.4447 105.968 25.1621L106.043 24.8628C106.092 24.6966 106.142 24.5303 106.192 24.3641C106.241 24.1978 106.299 24.0233 106.365 23.8404C106.514 23.4746 106.655 23.1172 106.787 22.7681C106.92 22.4023 107.036 22.0532 107.135 21.7207C107.152 21.6874 107.16 21.6376 107.16 21.5711C107.243 21.1554 107.4 20.9061 107.631 20.8229H107.607C107.706 20.7564 107.805 20.7232 107.904 20.7232C108.004 20.7066 108.136 20.7149 108.302 20.7481C108.566 20.798 108.839 20.9975 109.121 21.3466C109.419 21.6791 109.609 22.1197 109.692 22.6683C109.708 22.8013 109.7 22.951 109.667 23.1172C109.634 23.2668 109.592 23.4248 109.543 23.591L109.493 23.7905C109.493 23.8071 109.501 23.8238 109.518 23.8404L109.543 23.9152C109.576 24.015 109.592 24.1064 109.592 24.1895V24.4888C109.592 24.5387 109.592 24.5885 109.592 24.6384C109.609 24.6883 109.617 24.7382 109.617 24.788C109.568 24.9875 109.51 25.1787 109.443 25.3616C109.377 25.5445 109.311 25.7107 109.245 25.8603L109.071 26.2344C109.071 26.2677 109.071 26.2926 109.071 26.3092C109.088 26.3259 109.096 26.3508 109.096 26.384C108.964 26.7165 108.848 27.0574 108.748 27.4065C108.649 27.739 108.575 28.0632 108.525 28.3791V28.404C108.542 28.4372 108.55 28.4705 108.55 28.5037C108.55 28.5204 108.525 28.5536 108.475 28.6035L108.351 28.7032C108.169 29.0357 108.078 29.3101 108.078 29.5262C108.078 29.7257 108.178 29.8504 108.376 29.9002C108.475 29.867 108.6 29.7922 108.748 29.6758C108.914 29.5594 109.096 29.4098 109.295 29.2269C109.443 29.1438 109.584 29.0357 109.717 28.9027C109.849 28.7531 109.981 28.6118 110.114 28.4788L110.287 28.2793C110.668 27.8138 111.024 27.3234 111.355 26.808C111.686 26.276 112.017 25.7273 112.348 25.1621C112.48 24.9626 112.588 24.788 112.67 24.6384C112.753 24.4722 112.836 24.2976 112.919 24.1147ZM110.213 17.0574C109.899 17.0241 109.568 16.8994 109.22 16.6833C109.038 16.5503 108.881 16.3425 108.748 16.0599C108.616 15.7772 108.55 15.4613 108.55 15.1122C108.533 14.8462 108.558 14.6301 108.624 14.4638C108.707 14.2976 108.815 14.148 108.947 14.015C109.311 13.6825 109.692 13.5162 110.089 13.5162C110.271 13.4996 110.511 13.5495 110.809 13.6658C111.123 13.7822 111.396 13.9235 111.628 14.0898C111.711 14.1729 111.777 14.2477 111.826 14.3142C111.876 14.3807 111.909 14.4555 111.926 14.5387C111.959 14.6883 111.951 14.813 111.901 14.9127C111.868 15.0125 111.81 15.1205 111.727 15.2369V15.212C111.694 15.2951 111.653 15.3782 111.603 15.4613C111.57 15.5278 111.52 15.611 111.454 15.7107V15.6858C111.421 15.7689 111.371 15.8603 111.305 15.9601C111.256 16.0432 111.214 16.1264 111.181 16.2095C110.949 16.5752 110.776 16.808 110.66 16.9077C110.56 17.0075 110.412 17.0574 110.213 17.0574Z" fill="white"/>
<path d="M119.502 28.4788C119.419 28.4788 119.336 28.4788 119.254 28.4788C119.187 28.4622 119.113 28.4372 119.03 28.404L118.981 28.4788L118.782 28.7531C118.749 28.803 118.683 28.8529 118.583 28.9027C118.501 28.9526 118.443 29.0441 118.41 29.1771C118.393 29.1937 118.385 29.2103 118.385 29.2269V29.2519C118.319 29.3849 118.194 29.5345 118.012 29.7007C117.83 29.867 117.657 29.9917 117.491 30.0748C117.442 30.1081 117.392 30.1413 117.342 30.1746C117.293 30.2078 117.251 30.2411 117.218 30.2743C117.102 30.3574 116.995 30.4239 116.895 30.4738C116.796 30.5403 116.664 30.5902 116.498 30.6234C116.283 30.7066 116.076 30.7564 115.878 30.7731C115.696 30.7897 115.489 30.7897 115.257 30.7731L115.009 30.6733L114.686 30.4988L114.562 30.4489C114.529 30.4489 114.496 30.4406 114.463 30.4239C114.446 30.4239 114.43 30.4239 114.413 30.4239C114.33 30.4239 114.223 30.4073 114.091 30.3741C113.594 30.1413 113.156 29.8088 112.775 29.3766C112.361 28.8778 112.13 28.2793 112.08 27.581C112.08 27.448 112.088 27.2735 112.105 27.0574C112.105 26.8246 112.105 26.5919 112.105 26.3591C112.121 26.1264 112.138 25.9019 112.154 25.6858C112.187 25.4697 112.212 25.2951 112.229 25.1621C112.262 24.7298 112.345 24.3308 112.477 23.9651C112.576 23.6991 112.7 23.4414 112.849 23.192C113.015 22.9426 113.18 22.7016 113.346 22.4688C113.578 22.1031 113.826 21.7872 114.091 21.5212V21.5461C114.273 21.33 114.471 21.1388 114.686 20.9726C114.901 20.8063 115.125 20.6567 115.356 20.5237L115.505 20.4489C115.721 20.2993 115.927 20.1912 116.126 20.1247C116.341 20.0416 116.556 19.9834 116.771 19.9501C117.003 19.9169 117.193 19.9169 117.342 19.9501C117.508 19.9667 117.682 20.0083 117.864 20.0748L117.938 20.1247C118.186 20.2577 118.426 20.3907 118.658 20.5237C118.89 20.6401 119.096 20.7814 119.278 20.9476C119.477 21.0973 119.626 21.2718 119.725 21.4713C119.841 21.6708 119.899 21.8953 119.899 22.1446C119.932 22.2278 119.891 22.3109 119.775 22.394C119.676 22.4605 119.477 22.4771 119.179 22.4439C118.981 22.4605 118.741 22.5187 118.459 22.6185C118.195 22.7182 117.921 22.8429 117.64 22.9925C117.359 23.1421 117.086 23.3167 116.821 23.5162C116.573 23.6991 116.366 23.882 116.2 24.0648C116.018 24.3142 115.845 24.5885 115.679 24.8878C115.514 25.1704 115.373 25.4697 115.257 25.7855C115.224 25.8687 115.191 26.0349 115.158 26.2843C115.125 26.5337 115.092 26.7747 115.059 27.0075L114.984 27.4564V27.5561C114.934 27.7722 114.893 27.9801 114.86 28.1796C114.827 28.3791 114.81 28.5536 114.81 28.7032C114.81 28.8695 114.86 29.069 114.959 29.3017C115.059 29.5179 115.166 29.6426 115.282 29.6758C115.481 29.7756 115.704 29.8254 115.952 29.8254C116.085 29.8254 116.225 29.8088 116.374 29.7756C116.523 29.7423 116.672 29.7007 116.821 29.6509C116.904 29.6176 116.97 29.5761 117.02 29.5262C117.069 29.4597 117.127 29.3849 117.193 29.3017C117.243 29.2352 117.284 29.1687 117.317 29.1022C117.367 29.0357 117.425 28.9859 117.491 28.9526C117.723 28.7697 117.913 28.5619 118.062 28.3292C118.211 28.0798 118.302 27.8803 118.335 27.7307C118.103 27.581 117.872 27.2984 117.64 26.8828C117.425 26.4505 117.284 26.01 117.218 25.5611C117.268 25.1122 117.334 24.7714 117.417 24.5387C117.499 24.3059 117.582 24.1397 117.665 24.0399C117.764 23.9235 117.864 23.857 117.963 23.8404C118.079 23.8238 118.194 23.8155 118.31 23.8155C118.492 23.8155 118.699 23.8653 118.931 23.9651C119.163 24.0482 119.303 24.2145 119.353 24.4638H119.452C119.502 24.5137 119.527 24.6135 119.527 24.7631C119.56 24.8462 119.576 24.921 119.576 24.9875C119.593 25.054 119.593 25.1538 119.576 25.2868C119.576 25.2868 119.593 25.3034 119.626 25.3367L119.7 25.4364C119.783 25.5362 119.816 25.6276 119.8 25.7107C119.783 25.7772 119.758 25.8603 119.725 25.9601L119.676 26.1596L119.7 26.3342L119.75 26.7082C119.75 26.7581 119.692 26.8911 119.576 27.1072C119.477 27.3067 119.386 27.4896 119.303 27.6559H119.427C119.494 27.6725 119.568 27.6808 119.651 27.6808C119.833 27.714 120.023 27.6642 120.222 27.5312C120.437 27.3815 120.635 27.1904 120.817 26.9576C120.999 26.7581 121.19 26.5503 121.388 26.3342C121.587 26.1014 121.794 25.8437 122.009 25.5611C122.042 25.4946 122.059 25.4697 122.059 25.4863C122.141 25.3865 122.207 25.2785 122.257 25.1621C122.323 25.0457 122.398 24.9293 122.481 24.813C122.712 24.414 122.952 24.015 123.2 23.616C123.267 23.5661 123.341 23.5411 123.424 23.5411C123.507 23.5245 123.581 23.5411 123.647 23.591C123.713 23.6243 123.746 23.6908 123.746 23.7905C123.763 23.8736 123.722 23.99 123.622 24.1397L123.647 24.1147C123.498 24.5636 123.25 25.0457 122.902 25.5611C122.572 26.0765 122.207 26.5586 121.81 27.0075C121.413 27.4397 121.008 27.8055 120.594 28.1047C120.18 28.3874 119.816 28.5121 119.502 28.4788ZM118.683 27.0823L118.782 26.8579L118.906 26.4838C118.923 26.4173 118.947 26.3674 118.981 26.3342C119.014 26.2843 119.03 26.2344 119.03 26.1845C119.03 26.1679 119.03 26.1596 119.03 26.1596C119.047 26.143 119.055 26.1264 119.055 26.1097L118.931 25.5611C118.898 25.345 118.799 25.1538 118.633 24.9875C118.6 24.9709 118.559 24.9543 118.509 24.9377C118.476 24.9044 118.434 24.8878 118.385 24.8878C118.385 24.8712 118.36 24.8878 118.31 24.9377C118.31 24.9377 118.294 25.0042 118.261 25.1372C118.277 25.1704 118.277 25.2203 118.261 25.2868C118.244 25.3367 118.228 25.3865 118.211 25.4364C118.194 25.5195 118.178 25.6359 118.161 25.7855C118.161 25.9352 118.228 26.1929 118.36 26.5586V26.7332L118.683 27.0823Z" fill="white"/>
<g clip-path="url(#clip0_4208_5)">
<path opacity="0.831" fill-rule="evenodd" clip-rule="evenodd" d="M15.3353 -0.152435C15.9451 -0.152435 16.5549 -0.152435 17.1646 -0.152435C17.3116 0.126939 17.4131 0.431818 17.4695 0.762199C17.1716 1.60459 16.9686 2.46841 16.8597 3.35366C17.4823 4.86726 17.889 6.44247 18.0793 8.07927C18.0664 8.92031 17.914 9.73333 17.6219 10.5183C16.8027 12.0603 15.939 12.1112 15.0305 10.6707C15.3911 9.84327 15.5942 8.97942 15.6402 8.07927C15.1027 6.54427 14.6963 4.96909 14.4207 3.35366C14.5103 2.12102 14.8152 0.952321 15.3353 -0.152435Z" fill="#D12D2D"/>
<path opacity="0.861" fill-rule="evenodd" clip-rule="evenodd" d="M6.79875 2.59146C7.39845 2.51847 7.9576 2.6201 8.47558 2.89634C8.61857 3.94646 8.46613 4.96274 8.01827 5.94512C8.68382 7.58479 9.19174 9.26162 9.54266 10.9756C9.36369 12.0934 9.0079 13.1605 8.47558 14.1768C7.86583 14.5833 7.25607 14.5833 6.64632 14.1768C6.45089 13.0626 6.60333 11.9955 7.10363 10.9756C6.92924 9.9439 6.57345 8.97845 6.03656 8.07927C5.66461 6.12732 5.91888 4.29805 6.79875 2.59146Z" fill="#D12D2D"/>
<path opacity="0.853" fill-rule="evenodd" clip-rule="evenodd" d="M24.1768 2.59146C24.7765 2.51847 25.3357 2.6201 25.8537 2.89634C26.05 4.00625 25.8976 5.07332 25.3963 6.09756C26.057 7.62229 26.5652 9.1975 26.9207 10.8232C26.7247 11.8548 26.4704 12.871 26.1585 13.872C25.6073 14.45 24.9466 14.6024 24.1768 14.3293C23.9997 14.0571 23.8979 13.7523 23.8719 13.4146C24.0753 12.6016 24.2783 11.7886 24.4817 10.9756C23.7927 9.36634 23.3863 7.68951 23.2622 5.94512C23.1521 4.7029 23.457 3.585 24.1768 2.59146Z" fill="#D12D2D"/>
<path opacity="0.895" fill-rule="evenodd" clip-rule="evenodd" d="M41.8598 27.2866C41.8598 29.0142 41.8598 30.7418 41.8598 32.4695C40.1232 37.0543 36.7695 39.4933 31.7988 39.7866C30.2031 43.6692 27.3576 46.0573 23.2622 46.9512C20.1134 47.1037 16.9631 47.1543 13.811 47.1037C14.0439 46.336 14.3488 45.6247 14.7256 44.9695C17.5887 45.0771 20.4345 44.9247 23.2622 44.5122C27.3848 43.2326 29.6714 40.4381 30.122 36.128C30.4186 30.6125 30.3168 25.1248 29.8171 19.6646C29.5884 19.4738 29.3342 19.3214 29.0549 19.2073C20.5183 19.0041 11.9817 19.0041 3.44514 19.2073C3.16588 19.3214 2.91173 19.4738 2.68295 19.6646C2.53069 21.2875 2.4799 22.9135 2.53051 24.5427C1.71121 24.5927 0.898194 24.5419 0.0914864 24.3902C-0.137904 24.1857 -0.23955 23.9317 -0.213392 23.628C0.0384681 22.1596 0.190907 20.6352 0.243925 19.0549C0.701242 18.1911 1.36182 17.5305 2.22563 17.0732C11.5753 16.8699 20.9247 16.8699 30.2744 17.0732C31.6662 17.7 32.3775 18.7671 32.4086 20.2744C37.0662 20.6178 40.2165 22.9552 41.8598 27.2866ZM32.4086 22.4085C36.6451 23.1391 39.0842 25.6289 39.7256 29.878C39.2208 34.0899 36.8833 36.5796 32.7134 37.3476C32.4189 36.7695 32.3174 36.1598 32.4086 35.5183C36.6875 34.9439 38.4662 32.5049 37.7439 28.2012C36.8665 25.655 35.0881 24.3338 32.4086 24.2378C32.4086 23.628 32.4086 23.0183 32.4086 22.4085ZM32.4086 26.6768C35.389 27.3534 36.2531 29.0811 35 31.8598C34.3308 32.6006 33.5177 33.1088 32.561 33.3841C32.4086 31.1506 32.3579 28.9149 32.4086 26.6768Z" fill="#D12D2D"/>
<path opacity="0.867" fill-rule="evenodd" clip-rule="evenodd" d="M16.0794 25.8929C16.0641 26.0707 16.1237 26.2195 16.2581 26.3393C16.7308 26.4281 17.2073 26.4579 17.6874 26.4286C19.7832 26.6279 21.54 27.5207 22.9578 29.1071C23.588 30.6986 24.1835 32.3057 24.7445 33.9286C25.0523 35.4154 25.0819 36.9034 24.8338 38.3929C24.613 38.7766 24.4343 39.1932 24.2978 39.6429C23.8029 40.3759 23.1478 40.9116 22.3325 41.25C21.5584 41.25 20.7841 41.25 20.01 41.25C18.9342 40.6236 17.9813 39.82 17.1514 38.8393C16.5353 38.3971 15.8505 38.1888 15.0968 38.2143C14.2382 38.4171 13.3747 38.6552 12.5062 38.9286C11.9049 38.8773 11.369 38.6689 10.8983 38.3036C9.80934 38.0775 8.79695 38.2561 7.86105 38.8393C7.0311 39.82 6.07826 40.6236 5.00249 41.25C4.2283 41.25 3.45409 41.25 2.6799 41.25C1.3474 40.632 0.454101 39.6202 0 38.2143C0 37.0238 0 35.8334 0 34.6429C0.648042 32.5711 1.45201 30.5473 2.41191 28.5714C4.15719 27.1958 6.15222 26.4518 8.39703 26.3393C9.08305 25.6393 9.91679 25.2226 10.8983 25.0893C11.9702 24.9702 13.0422 24.9702 14.1142 25.0893C14.8433 25.2026 15.4984 25.4704 16.0794 25.8929ZM11.9702 26.25C13.7132 26.1045 15.1127 26.6998 16.1688 28.0357C16.9867 31.6552 16.0041 34.7207 13.2209 37.2321C13.0013 37.3716 12.7631 37.4609 12.5062 37.5C11.5759 37.1389 10.8315 36.5438 10.273 35.7143C9.54471 34.4238 8.9194 33.0845 8.39703 31.6964C7.75473 31.5048 7.39741 31.743 7.32507 32.4107C7.70165 33.848 8.29718 35.1873 9.11168 36.4286C6.76921 36.2238 4.89327 35.1523 3.48388 33.2143C2.48772 31.6243 2.69616 30.2255 4.10919 29.0179C5.09918 28.3899 6.17114 28.0923 7.32507 28.125C7.07071 28.8474 6.98138 29.5914 7.05708 30.3571C7.34283 30.6314 7.67039 30.7207 8.03971 30.625C8.28015 29.5489 8.66724 28.5072 9.20101 27.5C10.0082 26.7863 10.9312 26.3697 11.9702 26.25ZM17.6874 28.0357C19.4515 28.069 20.8509 28.7832 21.8859 30.1786C22.2403 31.092 22.1809 31.9848 21.7072 32.8571C20.3226 34.9929 18.3872 36.1834 15.9008 36.4286C17.6598 33.8623 18.2553 31.0646 17.6874 28.0357ZM1.7866 33.3929C3.06954 35.4175 4.85615 36.8164 7.14641 37.5893C6.49132 38.0059 5.95534 38.5416 5.53847 39.1964C3.73947 40.4427 2.39952 40.0557 1.51861 38.0357C1.1669 36.4659 1.25623 34.9182 1.7866 33.3929ZM22.8685 33.3929C24.0725 35.358 24.0427 37.3223 22.7792 39.2857C22.0092 39.9873 21.1457 40.1361 20.1886 39.7321C19.3607 39.0836 18.5866 38.3693 17.866 37.5893C19.5812 36.9852 21.0403 36.003 22.2432 34.6429C22.5478 34.272 22.7563 33.8554 22.8685 33.3929Z" fill="#D12D2D"/>
</g>
<defs>
<clipPath id="clip0_4208_5">
<rect width="42.5" height="50" fill="white"/>
</clipPath>
</defs>
</svg>
