<svg width="15" height="8" viewBox="0 0 15 8" fill="none" xmlns="http://www.w3.org/2000/svg">
<path fill-rule="evenodd" clip-rule="evenodd" d="M12.015 0.0963101C11.919 0.168267 11.7831 0.328167 11.7271 0.448096C11.5992 0.687952 10.7508 3.43208 10.519 4.33643C10.3591 4.93607 10.399 5.49662 10.5909 5.49662C10.7668 5.49662 11.4153 5.0249 12.3987 4.18452C13.6709 3.09628 14.1426 2.63256 14.4064 2.22481C14.7422 1.69712 14.7182 1.46438 14.2545 1.01665C13.4141 0.208242 12.4316 -0.199512 12.015 0.0963101Z" fill="#D12D2D"/>
<path fill-rule="evenodd" clip-rule="evenodd" d="M6.51869 0.264189C6.34279 0.32815 5.8391 0.488056 5.39847 0.61598C4.95074 0.751898 4.55009 0.9118 4.49412 0.991752C4.29424 1.26359 4.43016 1.76018 4.94186 2.63166C5.2057 3.08739 5.61345 3.79985 5.83821 4.2156C6.21398 4.91918 6.54978 5.32782 6.76654 5.33581C7.11833 5.34381 7.22227 4.72019 7.31821 1.92808L7.37417 0.392112L7.19028 0.264189C6.96642 0.11228 6.93444 0.11228 6.51869 0.264189Z" fill="#D12D2D"/>
<path fill-rule="evenodd" clip-rule="evenodd" d="M1.59897 3.47205C1.3751 3.552 1.02331 3.92778 0.638654 4.49632C-0.193735 5.73647 -0.209726 6.0083 0.574693 6.32811C0.894501 6.46403 3.21489 7.10454 3.90248 7.24845C4.14233 7.29642 4.3662 7.32041 4.40617 7.28842C4.44615 7.26444 4.47813 7.12852 4.47813 6.99261C4.47813 6.71277 4.30224 6.42495 3.50982 5.40867C3.214 5.04089 2.81424 4.48034 2.61347 4.16053C2.17373 3.47294 1.97385 3.33613 1.59719 3.47294L1.59897 3.47205Z" fill="#D12D2D"/>
</svg>
