<svg width="43" height="50" viewBox="0 0 43 50" fill="none" xmlns="http://www.w3.org/2000/svg">
<g clip-path="url(#clip0_4232_300)">
<path opacity="0.831" fill-rule="evenodd" clip-rule="evenodd" d="M15.3353 -0.152344C15.9451 -0.152344 16.5549 -0.152344 17.1646 -0.152344C17.3116 0.127031 17.4131 0.431909 17.4695 0.76229C17.1716 1.60468 16.9686 2.4685 16.8597 3.35375C17.4823 4.86735 17.889 6.44256 18.0793 8.07936C18.0664 8.9204 17.914 9.73342 17.6219 10.5184C16.8027 12.0604 15.939 12.1113 15.0305 10.6708C15.3911 9.84336 15.5942 8.97952 15.6402 8.07936C15.1027 6.54436 14.6963 4.96918 14.4207 3.35375C14.5103 2.12111 14.8152 0.952412 15.3353 -0.152344Z" fill="white"/>
<path opacity="0.861" fill-rule="evenodd" clip-rule="evenodd" d="M6.79875 2.59149C7.39845 2.51849 7.9576 2.62012 8.47558 2.89637C8.61857 3.94649 8.46613 4.96277 8.01827 5.94515C8.68382 7.58481 9.19174 9.26164 9.54266 10.9756C9.36369 12.0934 9.0079 13.1605 8.47558 14.1769C7.86583 14.5833 7.25607 14.5833 6.64632 14.1769C6.45089 13.0626 6.60333 11.9955 7.10363 10.9756C6.92924 9.94393 6.57345 8.97847 6.03656 8.07929C5.66461 6.12734 5.91888 4.29807 6.79875 2.59149Z" fill="white"/>
<path opacity="0.853" fill-rule="evenodd" clip-rule="evenodd" d="M24.1768 2.59149C24.7765 2.51849 25.3357 2.62012 25.8537 2.89637C26.05 4.00628 25.8976 5.07335 25.3963 6.09759C26.057 7.62231 26.5652 9.19753 26.9207 10.8232C26.7247 11.8548 26.4704 12.8711 26.1585 13.872C25.6073 14.45 24.9466 14.6024 24.1768 14.3293C23.9997 14.0572 23.8979 13.7523 23.8719 13.4147C24.0753 12.6016 24.2783 11.7887 24.4817 10.9756C23.7927 9.36637 23.3863 7.68954 23.2622 5.94515C23.1521 4.70292 23.457 3.58503 24.1768 2.59149Z" fill="white"/>
<path opacity="0.895" fill-rule="evenodd" clip-rule="evenodd" d="M41.8598 27.2865C41.8598 29.0142 41.8598 30.7417 41.8598 32.4694C40.1232 37.0542 36.7695 39.4932 31.7988 39.7865C30.2031 43.6691 27.3576 46.0572 23.2622 46.9511C20.1134 47.1036 16.9631 47.1542 13.811 47.1036C14.0439 46.3359 14.3488 45.6246 14.7256 44.9694C17.5887 45.0771 20.4345 44.9246 23.2622 44.5121C27.3848 43.2326 29.6714 40.438 30.122 36.128C30.4186 30.6124 30.3168 25.1247 29.8171 19.6646C29.5884 19.4738 29.3342 19.3213 29.0549 19.2072C20.5183 19.004 11.9817 19.004 3.44514 19.2072C3.16588 19.3213 2.91173 19.4738 2.68295 19.6646C2.53069 21.2874 2.4799 22.9134 2.53051 24.5426C1.71121 24.5926 0.898194 24.5418 0.0914864 24.3902C-0.137904 24.1857 -0.23955 23.9316 -0.213392 23.628C0.0384681 22.1595 0.190907 20.6351 0.243925 19.0548C0.701242 18.191 1.36182 17.5304 2.22563 17.0731C11.5753 16.8698 20.9247 16.8698 30.2744 17.0731C31.6662 17.7 32.3775 18.767 32.4086 20.2743C37.0662 20.6178 40.2165 22.9552 41.8598 27.2865ZM32.4086 22.4085C36.6451 23.139 39.0842 25.6288 39.7256 29.878C39.2208 34.0899 36.8833 36.5795 32.7134 37.3475C32.4189 36.7694 32.3174 36.1597 32.4086 35.5182C36.6875 34.9438 38.4662 32.5048 37.7439 28.2012C36.8665 25.6549 35.0881 24.3337 32.4086 24.2377C32.4086 23.628 32.4086 23.0182 32.4086 22.4085ZM32.4086 26.6768C35.389 27.3534 36.2531 29.081 35 31.8597C34.3308 32.6005 33.5177 33.1088 32.561 33.3841C32.4086 31.1505 32.3579 28.9148 32.4086 26.6768Z" fill="white"/>
<path opacity="0.867" fill-rule="evenodd" clip-rule="evenodd" d="M16.0794 25.8929C16.0641 26.0707 16.1237 26.2195 16.2581 26.3393C16.7308 26.4281 17.2073 26.4579 17.6874 26.4286C19.7832 26.6279 21.54 27.5207 22.9578 29.1071C23.588 30.6986 24.1835 32.3057 24.7445 33.9286C25.0523 35.4154 25.0819 36.9034 24.8338 38.3929C24.613 38.7766 24.4343 39.1932 24.2978 39.6429C23.8029 40.3759 23.1478 40.9116 22.3325 41.25C21.5584 41.25 20.7841 41.25 20.01 41.25C18.9342 40.6236 17.9813 39.82 17.1514 38.8393C16.5353 38.3971 15.8505 38.1888 15.0968 38.2143C14.2382 38.4171 13.3747 38.6552 12.5062 38.9286C11.9049 38.8773 11.369 38.6689 10.8983 38.3036C9.80934 38.0775 8.79695 38.2561 7.86105 38.8393C7.0311 39.82 6.07826 40.6236 5.00249 41.25C4.2283 41.25 3.45409 41.25 2.6799 41.25C1.3474 40.632 0.454101 39.6202 0 38.2143C0 37.0238 0 35.8334 0 34.6429C0.648042 32.5711 1.45201 30.5473 2.41191 28.5714C4.15719 27.1958 6.15222 26.4518 8.39703 26.3393C9.08305 25.6393 9.91679 25.2226 10.8983 25.0893C11.9702 24.9702 13.0422 24.9702 14.1142 25.0893C14.8433 25.2026 15.4984 25.4704 16.0794 25.8929ZM11.9702 26.25C13.7132 26.1045 15.1127 26.6998 16.1688 28.0357C16.9867 31.6552 16.0041 34.7207 13.2209 37.2321C13.0013 37.3716 12.7631 37.4609 12.5062 37.5C11.5759 37.1389 10.8315 36.5438 10.273 35.7143C9.54471 34.4238 8.9194 33.0845 8.39703 31.6964C7.75473 31.5048 7.39741 31.743 7.32507 32.4107C7.70165 33.848 8.29718 35.1873 9.11168 36.4286C6.76921 36.2238 4.89327 35.1523 3.48388 33.2143C2.48772 31.6243 2.69616 30.2255 4.10919 29.0179C5.09918 28.3899 6.17114 28.0923 7.32507 28.125C7.07071 28.8474 6.98138 29.5914 7.05708 30.3571C7.34283 30.6314 7.67039 30.7207 8.03971 30.625C8.28015 29.5489 8.66724 28.5072 9.20101 27.5C10.0082 26.7863 10.9312 26.3697 11.9702 26.25ZM17.6874 28.0357C19.4515 28.069 20.8509 28.7832 21.8859 30.1786C22.2403 31.092 22.1809 31.9848 21.7072 32.8571C20.3226 34.9929 18.3872 36.1834 15.9008 36.4286C17.6598 33.8623 18.2553 31.0646 17.6874 28.0357ZM1.7866 33.3929C3.06954 35.4175 4.85615 36.8164 7.14641 37.5893C6.49132 38.0059 5.95534 38.5416 5.53847 39.1964C3.73947 40.4427 2.39952 40.0557 1.51861 38.0357C1.1669 36.4659 1.25623 34.9182 1.7866 33.3929ZM22.8685 33.3929C24.0725 35.358 24.0427 37.3223 22.7792 39.2857C22.0092 39.9873 21.1457 40.1361 20.1886 39.7321C19.3607 39.0836 18.5866 38.3693 17.866 37.5893C19.5812 36.9852 21.0403 36.003 22.2432 34.6429C22.5478 34.272 22.7563 33.8554 22.8685 33.3929Z" fill="white"/>
</g>
<defs>
<clipPath id="clip0_4232_300">
<rect width="42.5" height="50" fill="white"/>
</clipPath>
</defs>
</svg>
