<svg width="124" height="107" viewBox="0 0 124 107" fill="none" xmlns="http://www.w3.org/2000/svg">
<path opacity="0.1" d="M88.3064 20.1326C88.3064 20.1326 87.4918 18.9221 92.5989 13.0865C97.7059 7.25097 108.086 12.7392 108.086 12.7392C108.086 12.7392 100.317 6.36784 92.5898 5.92579C84.8629 5.48374 79.3805 15.4058 78.4832 18.1488C77.5846 20.8888 79.8147 20.2921 82.44 18.1871C85.0652 16.0822 81.2209 2.8987 81.2209 2.8987C81.2209 2.8987 76.6549 8.85788 71.6236 16.9883C66.5922 25.1187 63.7698 26.3034 61.6539 28.3846C59.5412 30.4646 55.0475 32.1403 52.63 31.4252C50.2125 30.7101 44.4031 23.8365 35.1064 23.1603C25.8097 22.4841 17.9943 26.0284 17.9943 26.0284C17.9943 26.0284 26.3934 26.2474 30.5875 28.4918C34.7815 30.7361 33.8696 34.7009 36.3764 35.2278C38.8832 35.7547 41.8684 30.7166 37.6714 30.9827C33.4743 31.2488 21.7951 30.6947 18.0323 35.7714C14.2694 40.8481 6.50899 47.8836 0.217512 48.1748C0.217512 48.1748 14.5531 48.7104 20.7887 43.2405C27.0243 37.7706 36.472 40.6406 36.472 40.6406L49.6448 39.1514C49.6448 39.1514 55.6526 37.8799 54.4285 29.2998C53.2045 20.7196 53.9851 13.75 55.806 13.4424L61.3728 14.3098C61.3728 14.3098 57.1521 18.0557 60.76 26.1007C64.368 34.1457 65.4843 33.278 65.4843 33.278M59.8725 36.9152C64.9502 34.8192 73.819 24.2924 83.6894 20.9631C96.7477 16.5595 114.107 23.1369 120.93 45.6054C127.212 66.2965 114.529 91.3192 86.0782 100.94C53.331 112.012 30.6098 104.846 19.1439 79.7513C10.288 60.3604 19.1621 46.212 28.82 42.3493C37.7504 38.7764 50.3139 40.8613 59.8725 36.9152ZM38.9601 46.8561C48.379 43.2252 56.2526 46.1341 60.3538 53.6691C62.8875 58.3257 68.7607 74.3078 70.5245 79.657C72.2883 85.0062 73.5124 94.0504 62.0862 97.1339C51.671 99.9421 44.0992 97.3406 37.2649 89.9496C30.4828 82.6166 23.6367 69.8189 26.2388 60.1008C28.8409 50.3827 33.6814 48.8926 38.9601 46.8561ZM84.9157 30.3915C90.1395 28.6313 100.936 27.0423 105.381 35.1454C109.824 43.2495 114.765 58.81 111.568 68.2678C108.373 77.7287 99.3529 89.4787 86.9854 84.7806C77.6294 81.2265 69.3455 47.5077 71.6119 41.7218C74.8628 33.4248 84.9157 30.3915 84.9157 30.3915ZM47.4106 51.0213C46.0456 51.7459 44.9357 53.4158 47.5527 56.3256C50.5086 59.6093 53.2465 59.5908 52.6256 55.9879C51.8862 51.6754 49.3615 49.9858 47.4106 51.0213ZM80.5108 39.318C78.956 39.5291 77.2647 40.7074 78.5542 44.3052C80.01 48.3659 82.5664 49.2749 83.4106 45.7144C84.4184 41.4457 82.7339 39.0158 80.5108 39.318ZM95.6155 37.36C94.1168 36.9197 92.0401 37.2929 91.5022 41.0491C90.8945 45.2896 92.7619 47.1457 95.2005 44.289C98.1259 40.8592 97.7584 37.9889 95.6155 37.36ZM105.587 53.3913C105.631 51.9326 104.672 50.1829 100.631 50.7436C96.0688 51.3733 94.6618 53.5525 98.2969 54.9367C102.655 56.5964 105.525 55.4779 105.587 53.3913ZM103.652 67.996C104.512 66.7748 104.679 64.8174 100.92 63.3341C96.6774 61.6562 94.2513 62.8312 96.5675 65.777C99.3454 69.3063 102.425 69.7435 103.652 67.996ZM95.1796 80.3867C96.5101 79.6118 97.5438 77.8988 94.7998 75.0902C91.6995 71.9205 88.9669 72.0472 89.7467 75.6207C90.6792 79.9059 93.2771 81.4987 95.1796 80.3867ZM35.5605 58.3039C34.4375 59.3251 33.8193 61.2006 37.142 63.4051C40.8947 65.8944 43.5372 65.2343 41.9587 61.8921C40.0706 57.8911 37.1677 56.8445 35.5605 58.3039ZM34.3249 76.1142C34.6149 77.5461 35.955 79.0677 39.7753 77.7255C44.0875 76.2106 44.9648 73.8043 41.0954 73.1659C36.4547 72.4024 33.907 74.0618 34.3249 76.1142ZM44.5076 88.6435C45.6939 89.6016 47.7593 90.0229 49.8594 86.7749C52.2317 83.1052 51.3106 80.7137 47.8483 82.4406C43.7039 84.5074 42.8128 87.2758 44.5076 88.6435ZM57.7297 93.064C59.1288 93.7235 61.2444 93.6672 62.4305 90.0432C63.7694 85.9482 62.2504 83.8372 59.3432 86.2915C55.8596 89.2322 55.7219 92.118 57.7297 93.064Z" stroke="white" stroke-width="2" stroke-miterlimit="10"/>
</svg>
